<svg width="206" height="251" viewBox="0 0 206 251" fill="none" xmlns="http://www.w3.org/2000/svg">
<path d="M2.0608 222.06C-2.57087 231.015 1.67483 239.171 4.37664 242.13C14.0905 253.572 24.7798 252.193 33.1077 243.812C40.7561 235.764 56.6259 218.779 65.4231 208.027C74.2204 197.274 87.6199 191.532 93.22 190.005L142.567 175.668C147.902 173.957 158.356 168.602 157.493 160.871C156.63 153.141 146.62 152.858 141.723 153.683L100.75 159.867C106.419 152.188 120.169 132.81 129.817 116.73C139.465 100.65 152.288 93.4344 157.493 91.8367L194.779 77.2315C199.021 75.5713 207.138 70.6278 205.662 64.1347C204.186 57.6417 196.685 57.7401 193.119 58.6009L152.537 68.3773L183.887 14.3773C185.312 11.8919 186.615 5.86616 180.432 1.64698C174.249 -2.57221 168.219 2.30164 165.977 5.26596L122.136 73.5106C121.436 60.2421 120.036 33.4203 120.036 32.2809C120.036 30.8566 117.081 21.7399 109.361 22.5118C103.186 23.1294 101.963 30.3329 101.705 33.8067C101.344 45.7557 104.909 77.2315 101.705 95.8888C99.4538 105.539 93.9416 112.97 87.7467 122.865C59.9567 167.252 7.85038 210.867 2.0608 222.06Z" fill="#B68663"/>
</svg>
