<svg width="155" height="238" viewBox="0 0 155 238" fill="none" xmlns="http://www.w3.org/2000/svg">
<path d="M92.1312 0.131769C62.7815 2.83089 66.3462 34.6503 65.6531 70.5551C71.9838 77.0707 89.6913 88.6323 109.876 82.7545C135.106 75.4072 162.416 60.0194 152.712 39.7796C144.949 23.5877 122.491 31.4618 112.232 37.4228C115.785 24.4252 116.323 -2.09298 92.1312 0.131769Z" fill="#85BC3F"/>
<path d="M124.591 111.354C132.462 147.986 49.3733 251.463 20.3355 235.375C-17.9251 214.178 4.31065 96.2825 33.7293 76.177C70.9153 50.7632 116.089 71.7878 124.591 111.354Z" fill="#FF9940"/>
<mask id="mask0_295_2340" style="mask-type:alpha" maskUnits="userSpaceOnUse" x="0" y="65" width="126" height="173">
<path d="M124.591 111.354C132.462 147.986 49.3733 251.463 20.3355 235.375C-17.9251 214.178 4.31065 96.2825 33.7293 76.177C70.9153 50.7632 116.089 71.7878 124.591 111.354Z" fill="#FF9940"/>
</mask>
<g mask="url(#mask0_295_2340)">
<path d="M91.0815 136.938C105.583 150.761 112.699 154.859 123.491 155.345" stroke="#FE7700" stroke-width="8.63501" stroke-linecap="round"/>
<path d="M85.7256 160.669C100.986 173.65 108.323 177.338 119.125 177.213" stroke="#FE7700" stroke-width="8.63501" stroke-linecap="round"/>
</g>
</svg>
