<svg width="21" height="21" viewBox="0 0 21 21" fill="none" xmlns="http://www.w3.org/2000/svg">
<path d="M15.9 15.9C14.346 17.0845 12.4537 17.7408 10.5 17.7727C4.13636 17.7727 0.5 10.5 0.5 10.5C1.63081 8.39263 3.19921 6.55146 5.1 5.1M8.59091 3.44545C9.21667 3.29898 9.85733 3.22576 10.5 3.22727C16.8636 3.22727 20.5 10.5 20.5 10.5C19.9482 11.5324 19.2901 12.5043 18.5364 13.4M12.4273 12.4273C12.1776 12.6952 11.8765 12.9101 11.542 13.0592C11.2074 13.2083 10.8463 13.2884 10.4801 13.2949C10.1139 13.3013 9.75015 13.234 9.41055 13.0968C9.07096 12.9596 8.76247 12.7555 8.5035 12.4965C8.24452 12.2375 8.04036 11.929 7.90319 11.5894C7.76602 11.2499 7.69866 10.8861 7.70512 10.5199C7.71158 10.1537 7.79174 9.79259 7.9408 9.45804C8.08986 9.1235 8.30478 8.82241 8.57273 8.57273M0.5 0.5L20.5 20.5" stroke="#575757" stroke-linecap="round" stroke-linejoin="round"/>
</svg>
