<svg width="353" height="449" viewBox="0 0 353 449" fill="none" xmlns="http://www.w3.org/2000/svg">
<rect x="2" y="120.501" width="348.876" height="325.663" rx="62" fill="white" stroke="#DCE7FF" stroke-width="4"/>
<path d="M343.258 57.1916C347.285 88.7775 324.945 117.648 293.359 121.675C261.773 125.703 232.903 103.362 228.875 71.7759C224.848 40.1899 247.188 11.3197 278.774 7.2923C310.36 3.26495 339.231 25.6056 343.258 57.1916Z" fill="white" stroke="#DCE7FF" stroke-width="4.32841"/>
<path d="M275.008 81.8197C273.937 81.2897 272.638 81.7285 272.108 82.7998C271.578 83.8712 272.017 85.1693 273.089 85.6993L274.048 83.7595L275.008 81.8197ZM274.048 83.7595C273.089 85.6993 273.089 85.6997 273.09 85.7C273.09 85.7002 273.091 85.7006 273.092 85.7009C273.093 85.7015 273.094 85.7021 273.096 85.7028C273.099 85.7043 273.102 85.706 273.106 85.708C273.114 85.7119 273.124 85.7168 273.137 85.7227C273.161 85.7345 273.194 85.7502 273.236 85.7694C273.318 85.8077 273.433 85.8601 273.579 85.9234C273.871 86.05 274.287 86.221 274.811 86.4117C275.856 86.7925 277.341 87.2562 279.131 87.6013C282.696 88.2885 287.585 88.5264 292.625 86.5782L291.844 84.5596L291.064 82.541C287.021 84.1038 283.013 83.9417 279.95 83.3511C278.427 83.0573 277.165 82.6627 276.293 82.3448C275.857 82.1862 275.522 82.0478 275.301 81.9523C275.192 81.9047 275.111 81.8678 275.061 81.8447C275.036 81.8332 275.019 81.8251 275.01 81.8208C275.006 81.8186 275.003 81.8174 275.003 81.8172C275.003 81.8171 275.003 81.8173 275.004 81.8177C275.004 81.8179 275.005 81.8182 275.005 81.8185C275.006 81.8187 275.006 81.819 275.007 81.819C275.007 81.8193 275.008 81.8197 274.048 83.7595ZM291.844 84.5596L292.625 86.5782C297.708 84.6128 301.147 80.9403 303.286 77.8655C304.362 76.3187 305.131 74.8909 305.635 73.8437C305.887 73.319 306.074 72.8866 306.2 72.5786C306.263 72.4245 306.312 72.3012 306.345 72.2127C306.362 72.1684 306.375 72.1329 306.385 72.1064C306.39 72.0932 306.394 72.0823 306.397 72.0737C306.398 72.0695 306.4 72.0658 306.401 72.0627C306.401 72.0611 306.402 72.0597 306.402 72.0585C306.403 72.0578 306.403 72.057 306.403 72.0567C306.403 72.0559 306.403 72.0551 304.363 71.3333C302.323 70.6114 302.323 70.6107 302.323 70.6101C302.323 70.6099 302.324 70.6093 302.324 70.609C302.324 70.6083 302.324 70.6078 302.324 70.6074C302.325 70.6067 302.325 70.6065 302.325 70.6069C302.324 70.6077 302.323 70.6107 302.321 70.616C302.317 70.6266 302.31 70.646 302.3 70.6738C302.278 70.7293 302.244 70.8182 302.195 70.9366C302.098 71.1735 301.946 71.5276 301.734 71.9685C301.309 72.8527 300.651 74.0731 299.733 75.394C297.882 78.0546 295.062 80.9953 291.064 82.541L291.844 84.5596Z" fill="black"/>
<path d="M298.674 68.6344C302.72 72.217 305.293 73.6645 310.491 75.0997" stroke="black" stroke-width="4.32841" stroke-linecap="round"/>
<path d="M224.99 57.7033C226.527 50.4598 272.239 56.2777 276.324 57.1826C280.408 58.0875 284.062 61.3603 282.841 68.0191C281.62 74.6778 279.267 76.7196 273.542 76.4837C267.816 76.2478 223.452 64.9469 224.99 57.7033Z" fill="#FDB029"/>
<path d="M306.72 118.656C306.665 113.476 310.327 109 315.415 108.029C321.084 106.947 326.589 110.554 327.861 116.183L332.864 138.335C334.51 145.62 329.746 152.807 322.394 154.128C314.41 155.564 307.051 149.476 306.964 141.364L306.72 118.656Z" fill="#F14747"/>
<path d="M225.011 108.024C225.215 100.864 231.605 95.4645 238.712 96.3549C251.373 97.9411 270.561 100.08 284.918 100.505C299.576 100.939 319.286 99.8841 332.213 99.0146C339.359 98.5338 345.432 104.29 345.228 111.449C345.056 117.47 340.453 122.421 334.449 122.917C321.839 123.96 300.412 125.44 284.77 124.997C269.07 124.553 247.678 121.846 235.116 120.084C229.152 119.247 224.839 114.044 225.011 108.024Z" fill="#F14747"/>
<circle cx="263.759" cy="44.9683" r="5.4424" fill="black"/>
<circle cx="298.921" cy="49.9116" r="5.4424" fill="black"/>
<circle cx="252.287" cy="121.456" r="12.476" fill="white" stroke="#DCE7FF" stroke-width="3.63812"/>
<circle cx="284.413" cy="123.456" r="12.476" fill="white" stroke="#DCE7FF" stroke-width="3.63812"/>
</svg>
