<svg width="34" height="34" viewBox="0 0 34 34" fill="none" xmlns="http://www.w3.org/2000/svg">
<path d="M24.5721 18.2081L23.5044 19.2758C23.2145 19.5657 22.7337 19.5657 22.4438 19.2758C22.1538 18.9859 22.1538 18.505 22.4438 18.2151L23.5115 17.1474C25.3641 15.2948 25.3641 12.2825 23.5115 10.4299C21.6589 8.57726 18.6466 8.57726 16.794 10.4299L15.7333 11.4905C15.4434 11.7805 14.9626 11.7805 14.6727 11.4905C14.3827 11.2006 14.3757 10.7269 14.6727 10.4299L15.7333 9.36922C18.1728 6.92971 22.1326 6.92971 24.5721 9.36922C27.0117 11.8087 27.0117 15.7685 24.5721 18.2081Z" fill="#3E3E3E"/>
<path d="M19.2686 23.5116L18.208 24.5722C15.7684 27.0118 11.8086 27.0118 9.36912 24.5722C6.92961 22.1327 6.92961 18.1729 9.36912 15.7334L10.4298 14.6728C10.7197 14.3828 11.2005 14.3828 11.4904 14.6728C11.7804 14.9627 11.7804 15.4435 11.4904 15.7334L10.4298 16.7941C8.57716 18.6467 8.57716 21.659 10.4298 23.5116C12.2824 25.3642 15.2947 25.3642 17.1473 23.5116L18.208 22.4509C18.4979 22.161 18.9787 22.161 19.2686 22.4509C19.5585 22.7408 19.5585 23.2217 19.2686 23.5116Z" fill="#3E3E3E"/>
<path d="M20.3294 14.6728L14.6725 20.3296C14.3826 20.6196 13.9018 20.6196 13.6119 20.3296C13.322 20.0397 13.322 19.5589 13.6119 19.269L19.2687 13.6121C19.5586 13.3222 20.0395 13.3222 20.3294 13.6121C20.6193 13.902 20.6193 14.3829 20.3294 14.6728Z" fill="#3E3E3E"/>
</svg>
