<svg width="168" height="161" viewBox="0 0 168 161" fill="none" xmlns="http://www.w3.org/2000/svg">
<rect y="106.861" width="167.159" height="53.7686" rx="3.61108" fill="#2E7D32"/>
<path d="M57.2035 105.876C59.0339 107.242 59.1516 109.944 57.447 111.464L6.01486 157.343C3.68747 159.419 -1.36327e-07 157.767 0 154.648L3.68379e-06 70.3724C3.8137e-06 67.4004 3.3898 65.7008 5.77135 67.4787L57.2035 105.876Z" fill="#2E7D32"/>
<path d="M109.953 105.876C108.124 107.243 108.007 109.943 109.711 111.464L161.144 157.343C163.471 159.419 167.159 157.767 167.159 154.648V70.3469C167.159 67.3743 163.768 65.6749 161.387 67.4539L109.953 105.876Z" fill="#2E7D32"/>
<path d="M82.8446 141.69C83.0357 141.866 83.329 141.866 83.5202 141.69L164.074 67.8686C164.41 67.5605 164.192 67 163.736 67H2.62862C2.17258 67 1.9546 67.5605 2.2908 67.8686L82.8446 141.69Z" fill="#2E7D32"/>
<mask id="mask0_662_1517" style="mask-type:alpha" maskUnits="userSpaceOnUse" x="2" y="67" width="163" height="75">
<path d="M82.8446 141.69C83.0357 141.866 83.329 141.866 83.5202 141.69L164.074 67.8686C164.41 67.5605 164.192 67 163.736 67H2.62862C2.17258 67 1.9546 67.5605 2.2908 67.8686L82.8446 141.69Z" fill="#E34234"/>
</mask>
<g mask="url(#mask0_662_1517)">
<path d="M1.68235 66.0001L82.6823 124" stroke="#0C6A00"/>
<path d="M82.6824 124L164.682 66" stroke="#0C6A00"/>
</g>
<path d="M84.2 105.711C86.2072 102.513 88.967 99.0627 93.1067 99.0627C100.32 99.0627 104.899 105.272 104.899 112.046C104.899 122.521 95.5529 131.992 88.1516 138.327C86.9599 139.394 84.6391 141.84 83.1337 141.84C81.5029 141.84 79.4958 139.394 78.3668 138.327C70.3382 130.926 61.6824 123.713 61.6824 111.796C61.6824 105.21 66.5121 99 73.3489 99C77.4259 99 81.8793 102.575 84.2 105.711Z" fill="#205823"/>
</svg>
