<svg width="168" height="161" viewBox="0 0 168 161" fill="none" xmlns="http://www.w3.org/2000/svg">
<rect y="106.861" width="167.159" height="53.7686" rx="3.61108" fill="#FFC845"/>
<path d="M57.2035 105.876C59.0339 107.242 59.1516 109.944 57.447 111.464L6.01486 157.343C3.68747 159.419 -1.36327e-07 157.767 0 154.648L3.68379e-06 70.3724C3.8137e-06 67.4004 3.3898 65.7008 5.77135 67.4787L57.2035 105.876Z" fill="#FFC845"/>
<path d="M109.953 105.876C108.124 107.243 108.007 109.943 109.711 111.464L161.144 157.343C163.471 159.419 167.159 157.767 167.159 154.648V70.3469C167.159 67.3743 163.768 65.6749 161.387 67.4539L109.953 105.876Z" fill="#FFC845"/>
<path d="M83.0033 141.69C83.1944 141.866 83.4877 141.866 83.6789 141.69L164.233 67.8686C164.569 67.5605 164.351 67 163.895 67H2.78731C2.33127 67 2.11329 67.5605 2.4495 67.8686L83.0033 141.69Z" fill="#FFC845"/>
<mask id="mask0_662_1511" style="mask-type:alpha" maskUnits="userSpaceOnUse" x="2" y="67" width="163" height="75">
<path d="M83.0033 141.69C83.1944 141.866 83.4877 141.866 83.6789 141.69L164.233 67.8686C164.569 67.5605 164.351 67 163.895 67H2.78731C2.33127 67 2.11329 67.5605 2.4495 67.8686L83.0033 141.69Z" fill="#E34234"/>
</mask>
<g mask="url(#mask0_662_1511)">
<path d="M1.84104 66.0001L82.8409 124" stroke="#C58A00"/>
<path d="M82.8411 124L164.841 66" stroke="#C58A00"/>
</g>
<path d="M84.3587 105.711C86.3659 102.513 89.1257 99.0627 93.2654 99.0627C100.479 99.0627 105.057 105.272 105.057 112.046C105.057 122.521 95.7116 131.992 88.3103 138.327C87.1185 139.394 84.7978 141.84 83.2924 141.84C81.6616 141.84 79.6545 139.394 78.5255 138.327C70.4969 130.926 61.8411 123.713 61.8411 111.796C61.8411 105.21 66.6708 99 73.5076 99C77.5846 99 82.038 102.575 84.3587 105.711Z" fill="#A93232"/>
<path d="M84.3587 105.711C86.3659 102.513 89.1257 99.0627 93.2654 99.0627C100.479 99.0627 105.057 105.272 105.057 112.046C105.057 122.521 95.7116 131.992 88.3103 138.327C87.1185 139.394 84.7978 141.84 83.2924 141.84C81.6616 141.84 79.6545 139.394 78.5255 138.327C70.4969 130.926 61.8411 123.713 61.8411 111.796C61.8411 105.21 66.6708 99 73.5076 99C77.5846 99 82.038 102.575 84.3587 105.711Z" fill="#FDB029"/>
</svg>
