<svg width="168" height="161" viewBox="0 0 168 161" fill="none" xmlns="http://www.w3.org/2000/svg">
<path d="M81.3142 0.83743C82.6602 -0.278967 84.6158 -0.279163 85.962 0.836961L165.853 67.0708C166.941 67.9731 167.402 69.423 167.034 70.7841L148.173 140.447C147.765 141.957 146.425 143.033 144.855 143.114L81.4115 146.363L17.7726 143.122C16.1205 143.038 14.7346 141.853 14.4024 140.241L0.0740281 70.6952C-0.194406 69.3923 0.278752 68.048 1.30556 67.1964L81.3142 0.83743Z" fill="#E34234"/>
<rect x="16.0647" y="10.7803" width="135.029" height="105.552" rx="3.61108" fill="#F0F0F0"/>
<rect y="106.861" width="167.159" height="53.7686" rx="3.61108" fill="#E34234"/>
<path d="M57.2035 105.876C59.0339 107.242 59.1516 109.944 57.447 111.464L6.01486 157.343C3.68747 159.419 -1.36327e-07 157.767 0 154.648L3.68379e-06 70.3724C3.8137e-06 67.4004 3.3898 65.7008 5.77135 67.4787L57.2035 105.876Z" fill="#E34234"/>
<path d="M109.953 105.876C108.124 107.243 108.007 109.943 109.711 111.464L161.144 157.343C163.471 159.419 167.159 157.767 167.159 154.648V70.3469C167.159 67.3743 163.768 65.6749 161.387 67.4539L109.953 105.876Z" fill="#E34234"/>
<path d="M84.3997 46.695C86.4069 43.4961 89.1667 40.0464 93.3064 40.0464C100.52 40.0464 105.098 46.256 105.098 53.0301C105.098 63.5049 95.7527 72.9761 88.3513 79.3111C87.1596 80.3774 84.8388 82.8236 83.3334 82.8236C81.7026 82.8236 79.6955 80.3774 78.5665 79.3111C70.5379 71.9098 61.8821 64.6966 61.8821 52.7792C61.8821 46.1932 66.7118 39.9836 73.5486 39.9836C77.6256 39.9836 82.079 43.5589 84.3997 46.695Z" fill="#A93232"/>
</svg>
