<svg width="168" height="161" viewBox="0 0 168 161" fill="none" xmlns="http://www.w3.org/2000/svg">
<rect y="106.861" width="167.159" height="53.7686" rx="3.61108" fill="#E34234"/>
<path d="M57.2035 106.146C59.0339 107.513 59.1516 110.214 57.447 111.735L6.01486 157.613C3.68747 159.689 -1.36327e-07 158.037 0 154.919L3.68379e-06 70.6431C3.8137e-06 67.6711 3.3898 65.9715 5.77135 67.7495L57.2035 106.146Z" fill="#E34234"/>
<path d="M109.953 106.147C108.124 107.513 108.007 110.214 109.711 111.734L161.144 157.614C163.471 159.69 167.159 158.038 167.159 154.919V70.6176C167.159 67.6451 163.768 65.9457 161.387 67.7246L109.953 106.147Z" fill="#E34234"/>
<path d="M83.1622 141.69C83.3533 141.866 83.6467 141.866 83.8378 141.69L164.392 67.8686C164.728 67.5605 164.51 67 164.054 67H2.94625C2.49021 67 2.27222 67.5605 2.60843 67.8686L83.1622 141.69Z" fill="#E34234"/>
<mask id="mask0_662_1505" style="mask-type:alpha" maskUnits="userSpaceOnUse" x="2" y="67" width="163" height="75">
<path d="M83.1622 141.69C83.3533 141.866 83.6467 141.866 83.8378 141.69L164.392 67.8686C164.728 67.5605 164.51 67 164.054 67H2.94625C2.49021 67 2.27222 67.5605 2.60843 67.8686L83.1622 141.69Z" fill="#E34234"/>
</mask>
<g mask="url(#mask0_662_1505)">
<path d="M1.99997 66.0001L82.9999 124" stroke="#C51300"/>
<path d="M83 124L165 66" stroke="#C51300"/>
</g>
<path d="M84.5177 105.711C86.5248 102.513 89.2846 99.0627 93.4244 99.0627C100.638 99.0627 105.216 105.272 105.216 112.046C105.216 122.521 95.8706 131.992 88.4692 138.327C87.2775 139.394 84.9567 141.84 83.4514 141.84C81.8206 141.84 79.8134 139.394 78.6844 138.327C70.6558 130.926 62 123.713 62 111.796C62 105.21 66.8297 99 73.6665 99C77.7435 99 82.1969 102.575 84.5177 105.711Z" fill="#A93232"/>
</svg>
