<svg width="19" height="19" viewBox="0 0 19 19" fill="none" xmlns="http://www.w3.org/2000/svg">
<path d="M17.0324 10.6685L15.9647 11.7362C15.6748 12.0261 15.194 12.0261 14.904 11.7362C14.6141 11.4463 14.6141 10.9655 14.904 10.6755L15.9718 9.60781C17.8244 7.75519 17.8244 4.74292 15.9718 2.8903C14.1192 1.03768 11.1069 1.03768 9.25426 2.8903L8.1936 3.95096C7.90369 4.24087 7.42285 4.24087 7.13294 3.95096C6.84303 3.66105 6.83595 3.18728 7.13294 2.8903L8.1936 1.82964C10.6331 -0.60988 14.5929 -0.60988 17.0324 1.82964C19.472 4.26916 19.472 8.22895 17.0324 10.6685Z" fill="#575757"/>
<path d="M11.7291 15.9718L10.6685 17.0324C8.22895 19.472 4.26916 19.472 1.82964 17.0324C-0.60988 14.5929 -0.60988 10.6331 1.82964 8.1936L2.8903 7.13294C3.18021 6.84303 3.66105 6.84303 3.95096 7.13294C4.24087 7.42285 4.24087 7.90369 3.95096 8.1936L2.8903 9.25426C1.03768 11.1069 1.03768 14.1192 2.8903 15.9718C4.74292 17.8244 7.75519 17.8244 9.60781 15.9718L10.6685 14.9111C10.9584 14.6212 11.4392 14.6212 11.7291 14.9111C12.019 15.201 12.019 15.6819 11.7291 15.9718Z" fill="#575757"/>
<path d="M12.7898 7.13294L7.13294 12.7898C6.84303 13.0797 6.36219 13.0797 6.07228 12.7898C5.78237 12.4999 5.78237 12.019 6.07228 11.7291L11.7291 6.07228C12.019 5.78237 12.4999 5.78237 12.7898 6.07228C13.0797 6.36219 13.0797 6.84303 12.7898 7.13294Z" fill="#575757"/>
</svg>
