<svg width="84" height="84" viewBox="0 0 84 84" fill="none" xmlns="http://www.w3.org/2000/svg">
<path d="M11.2726 41.3938C11.2726 38.0717 11.8113 34.8843 12.8887 31.8316C13.9662 28.6891 15.4476 25.8159 17.3331 23.2122C19.3084 20.5186 21.598 18.1841 24.2018 16.2088C26.8056 14.2336 29.6338 12.7521 32.6865 11.7644C33.4048 11.5849 34.5272 11.3155 36.0535 10.9564C37.6697 10.5074 39.3307 10.1034 41.0367 9.74425C42.8324 9.38511 44.4934 9.07086 46.0198 8.8015C47.6359 8.53214 48.8031 8.39746 49.5214 8.39746C53.9209 8.39746 57.8266 9.51979 61.2385 11.7644C64.6504 14.0091 67.4786 16.8822 69.7233 20.3839C72.0577 23.7958 73.8086 27.6117 74.9758 31.8316C76.143 36.0516 76.7266 40.0919 76.7266 43.9527C76.7266 48.2625 76.0083 52.3477 74.5717 56.2085C73.2249 60.0693 71.2496 63.4363 68.6458 66.3094C66.1318 69.1826 63.0342 71.4721 59.353 73.1781C55.7616 74.7942 51.7212 75.6023 47.2319 75.6023C42.6528 75.6023 38.2084 74.7044 33.8987 72.9087C29.5889 71.113 25.7281 68.6888 22.3163 65.6361C18.9942 62.4935 16.3006 58.8572 14.2355 54.727C12.2602 50.5071 11.2726 46.0627 11.2726 41.3938ZM16.3904 41.5285C16.3904 45.5689 17.2882 49.3399 19.084 52.8415C20.9695 56.2534 23.3937 59.2612 26.3566 61.865C29.3196 64.4688 32.6417 66.5339 36.3229 68.0603C40.0041 69.4968 43.6853 70.2151 47.3666 70.2151C51.1376 70.2151 54.5045 69.5417 57.4675 68.195C60.4304 66.8482 62.8995 65.0075 64.8748 62.6731C66.9399 60.2489 68.4663 57.4655 69.4539 54.323C70.5314 51.1805 71.0701 47.7686 71.0701 44.0874C71.0701 40.7653 70.6211 37.3086 69.7233 33.7171C68.9152 30.1257 67.6133 26.8485 65.8176 23.8856C64.0219 20.9226 61.6874 18.4984 58.8143 16.6129C56.0309 14.6376 52.7088 13.6499 48.848 13.6499C48.04 13.6499 46.783 13.7846 45.077 14.054C43.4609 14.3233 41.7549 14.6825 39.9592 15.1314C38.1635 15.5803 36.4127 16.0742 34.7067 16.6129C33.0008 17.1516 31.7438 17.6903 30.9357 18.229C26.7158 20.6533 23.2141 23.8855 20.4308 27.9259C17.7372 31.9663 16.3904 36.5005 16.3904 41.5285Z" fill="#141414"/>
<path d="M40.3269 53.7673C39.6418 53.4284 38.8117 53.709 38.4728 54.3941C38.1338 55.0792 38.4144 55.9094 39.0996 56.2483L39.7132 55.0078L40.3269 53.7673ZM39.7132 55.0078C39.0996 56.2483 39.1 56.2486 39.1005 56.2488C39.1007 56.2489 39.1012 56.2491 39.1016 56.2493C39.1024 56.2497 39.1032 56.2501 39.1042 56.2506C39.1061 56.2515 39.1083 56.2526 39.1108 56.2539C39.116 56.2564 39.1225 56.2595 39.1304 56.2633C39.1461 56.2708 39.1672 56.2809 39.1936 56.2931C39.2463 56.3176 39.32 56.3511 39.4134 56.3916C39.6001 56.4726 39.8662 56.5819 40.201 56.7039C40.8694 56.9474 41.8189 57.2439 42.9636 57.4646C45.2432 57.9041 48.3702 58.0563 51.5928 56.8104L51.0937 55.5195L50.5946 54.2286C48.0096 55.228 45.4464 55.1243 43.4876 54.7467C42.5131 54.5588 41.7065 54.3064 41.1485 54.1031C40.8701 54.0017 40.6554 53.9132 40.5147 53.8522C40.4444 53.8217 40.3927 53.7981 40.3609 53.7833C40.3451 53.776 40.3342 53.7708 40.3285 53.768C40.3256 53.7667 40.324 53.7659 40.3238 53.7658C40.3236 53.7657 40.3238 53.7658 40.3244 53.7661C40.3246 53.7662 40.325 53.7664 40.3254 53.7666C40.3256 53.7667 40.326 53.7669 40.3261 53.7669C40.3265 53.7671 40.3269 53.7673 39.7132 55.0078ZM51.0937 55.5195L51.5928 56.8104C54.8437 55.5535 57.043 53.205 58.4107 51.2386C59.0987 50.2495 59.5908 49.3364 59.9127 48.6667C60.074 48.3312 60.1935 48.0547 60.2743 47.8577C60.3147 47.7591 60.3455 47.6803 60.367 47.6237C60.3778 47.5954 60.3862 47.5727 60.3924 47.5558C60.3955 47.5473 60.398 47.5403 60.4 47.5348C60.401 47.5321 60.4018 47.5297 60.4026 47.5278C60.4029 47.5268 60.4032 47.5259 60.4035 47.5251C60.4037 47.5247 60.4038 47.5241 60.4039 47.5239C60.4041 47.5234 60.4043 47.523 59.0995 47.0613C57.7948 46.5997 57.7949 46.5992 57.7951 46.5988C57.7951 46.5987 57.7953 46.5983 57.7953 46.5981C57.7955 46.5977 57.7956 46.5974 57.7957 46.5971C57.7959 46.5967 57.7959 46.5965 57.7958 46.5968C57.7956 46.5973 57.7949 46.5993 57.7937 46.6027C57.7912 46.6094 57.7866 46.6218 57.7798 46.6396C57.7663 46.6751 57.7442 46.7319 57.7132 46.8076C57.651 46.9592 57.5535 47.1856 57.4179 47.4676C57.1462 48.033 56.7258 48.8135 56.1383 49.6581C54.9549 51.3596 53.1513 53.2401 50.5946 54.2286L51.0937 55.5195Z" fill="#141414"/>
<path d="M55.4615 45.3365C58.0486 47.6275 59.6943 48.5532 63.0185 49.471" stroke="#141414" stroke-width="2.768" stroke-linecap="round"/>
<path d="M8.34029 38.3457C9.32376 33.7135 38.5564 37.434 41.1681 38.0127C43.7799 38.5914 46.1171 40.6843 45.3361 44.9425C44.555 49.2008 43.0506 50.5065 39.3892 50.3556C35.7277 50.2048 7.35681 42.9779 8.34029 38.3457Z" fill="#FDB029"/>
<circle cx="33.1333" cy="30.2011" r="3.48038" fill="#141414"/>
<circle cx="55.6191" cy="33.3627" r="3.48038" fill="#141414"/>
</svg>
