<svg width="267" height="236" viewBox="0 0 267 236" fill="none" xmlns="http://www.w3.org/2000/svg">
<path d="M42.3549 6.36032C16.7726 12.7559 8.12219 38.1331 6.99476 50.0223C6.23561 58.0278 0.931 63.0868 0.200319 72.3919C-0.329349 79.1372 -0.073644 84.0219 4.29962 93.0695C14.7058 114.598 64.737 123.742 88.4518 125.623C88.4518 125.623 85.614 153.174 81.1255 170.26C77.2769 184.909 73.0549 196.502 68.2766 206.855C63.4982 217.208 63.7637 220.128 69.8693 226.499C75.975 232.87 116.857 236.852 129.864 235.79C140.27 234.941 142.872 225.88 142.872 221.455L144.73 166.77C156.057 181.193 180.157 211.421 185.948 216.942C193.186 223.844 198.354 225.968 209.238 224.11C220.122 222.252 255.694 191.989 263.658 180.839C270.03 171.92 264.72 165.973 261.269 164.115C255.252 160.664 238.758 149.886 220.919 134.383C203.079 118.88 190.172 100.381 185.948 93.0695C188.635 85.9713 190.51 79.0504 188.896 63.1076C187.282 47.1648 189.055 35.7344 180.106 26.039C162.395 6.85229 116.15 0.825678 95.2414 0.210706C88.2718 -0.404253 67.9372 -0.0352722 42.3549 6.36032Z" fill="#B0AFAE"/>
<path d="M21.2346 36.405C87.4339 59.3754 110.934 62.6608 176.095 41.9748" stroke="#939290" stroke-width="7.40143" stroke-linecap="round"/>
</svg>
