<svg width="139" height="171" viewBox="0 0 139 171" fill="none" xmlns="http://www.w3.org/2000/svg">
<path d="M134.149 48.5068C136.745 75.2964 117.133 99.1183 90.3433 101.715C63.5537 104.311 39.7318 84.6983 37.1355 57.9087C34.5393 31.1191 54.1518 7.29717 80.9414 4.70091C107.731 2.10465 131.553 21.7172 134.149 48.5068Z" fill="white" stroke="#DCE7FF" stroke-width="3.65872"/>
<circle cx="83.234" cy="114.954" r="50.7294" fill="white"/>
<path d="M45.3291 80.6077C36.007 90.8767 30.8866 104.892 32.3298 119.783C35.0444 147.794 59.9517 168.3 87.962 165.585C115.972 162.871 136.478 137.963 133.764 109.953C132.81 100.11 129.116 91.1938 123.509 83.8861" stroke="#DCE7FF" stroke-width="3.65872"/>
<circle cx="65.9651" cy="35.3079" r="4.60034" fill="black"/>
<circle cx="95.6868" cy="39.4858" r="4.60034" fill="black"/>
<path d="M76.1683 68.5002C75.2549 68.0483 74.1481 68.4224 73.6962 69.3358C73.2443 70.2492 73.6185 71.356 74.5319 71.8079L75.3501 70.154L76.1683 68.5002ZM75.3501 70.154C74.5319 71.8079 74.5325 71.8082 74.5332 71.8085C74.5334 71.8087 74.5341 71.809 74.5346 71.8092C74.5356 71.8097 74.5368 71.8103 74.538 71.8109C74.5405 71.8122 74.5435 71.8136 74.5469 71.8153C74.5538 71.8186 74.5625 71.8228 74.573 71.8279C74.5939 71.8379 74.6221 71.8513 74.6572 71.8676C74.7275 71.9003 74.8258 71.945 74.9503 71.999C75.1993 72.1069 75.554 72.2527 76.0004 72.4153C76.8915 72.7399 78.1574 73.1353 79.6835 73.4295C82.7227 74.0155 86.8918 74.2183 91.1882 72.5572L90.5228 70.8362L89.8574 69.1151C86.411 70.4476 82.9937 70.3094 80.3822 69.8059C79.083 69.5554 78.0076 69.2189 77.2636 68.9479C76.8924 68.8127 76.6062 68.6946 76.4186 68.6133C76.3248 68.5726 76.2559 68.5412 76.2136 68.5215C76.1924 68.5117 76.1779 68.5048 76.1703 68.5011C76.1665 68.4993 76.1644 68.4983 76.164 68.4981C76.1639 68.498 76.1641 68.4981 76.1648 68.4985C76.1652 68.4987 76.1656 68.4989 76.1662 68.4992C76.1665 68.4993 76.167 68.4996 76.1672 68.4996C76.1677 68.4999 76.1683 68.5002 75.3501 70.154ZM90.5228 70.8362L91.1882 72.5572C95.5224 70.8815 98.4546 67.7504 100.278 65.1289C101.195 63.8101 101.851 62.5927 102.28 61.6999C102.496 61.2525 102.655 60.8839 102.763 60.6213C102.816 60.4899 102.857 60.3848 102.886 60.3093C102.901 60.2716 102.912 60.2413 102.92 60.2187C102.924 60.2075 102.928 60.1982 102.93 60.1909C102.932 60.1872 102.933 60.1841 102.934 60.1814C102.934 60.1801 102.934 60.1789 102.935 60.1778C102.935 60.1773 102.935 60.1766 102.935 60.1763C102.936 60.1757 102.936 60.175 101.196 59.5595C99.4569 58.9441 99.4571 58.9435 99.4572 58.9429C99.4573 58.9428 99.4575 58.9423 99.4576 58.942C99.4578 58.9414 99.4579 58.941 99.4581 58.9407C99.4583 58.94 99.4583 58.9399 99.4582 58.9402C99.458 58.9409 99.457 58.9435 99.4554 58.948C99.4521 58.957 99.4459 58.9736 99.4369 58.9973C99.4189 59.0446 99.3894 59.1204 99.3481 59.2213C99.2652 59.4234 99.1351 59.7252 98.9544 60.1012C98.5921 60.855 98.0316 61.8955 97.2483 63.0217C95.6706 65.2901 93.2661 67.7973 89.8574 69.1151L90.5228 70.8362Z" fill="black"/>
<path d="M96.3459 57.2584C99.795 60.3129 101.989 61.547 106.421 62.7706" stroke="black" stroke-width="3.69037" stroke-linecap="round"/>
<path d="M34.2118 45.9194C35.6961 39.8386 74.1693 45.9212 77.5968 46.79C81.0243 47.6588 84.0287 50.5173 82.8268 56.1121C81.6249 61.7068 79.5852 63.3718 74.7537 63.0264C69.9222 62.6809 32.7275 52.0001 34.2118 45.9194Z" fill="#FDB029"/>
<path d="M101.709 99.5041C101.795 95.1262 105.003 91.4379 109.327 90.7472C114.144 89.9778 118.704 93.1662 119.634 97.9547L123.296 116.798C124.5 122.996 120.292 128.946 114.047 129.875C107.264 130.884 101.202 125.553 101.335 118.696L101.709 99.5041Z" fill="#F14747"/>
<path d="M32.9878 88.0287C33.3431 81.9848 38.8802 77.5858 44.8621 78.5196C55.5187 80.183 71.6755 82.4802 83.7949 83.2057C96.168 83.9463 112.848 83.5585 123.792 83.1539C129.842 82.9301 134.826 87.9482 134.471 93.9921C134.172 99.075 130.156 103.14 125.072 103.406C114.391 103.965 96.2488 104.668 83.0442 103.895C69.7912 103.119 51.7863 100.286 41.2178 98.4764C36.2002 97.6172 32.6891 93.1106 32.9878 88.0287Z" fill="#F14747"/>
<rect x="2" y="101.334" width="59.3647" height="45.5659" rx="5" fill="white" stroke="#B3C7F4" stroke-width="4"/>
<line x1="3.42339" y1="103.541" x2="31.4114" y2="126.626" stroke="#B3C7F4" stroke-width="4" stroke-linecap="round"/>
<line x1="2" y1="-2" x2="38.28" y2="-2" transform="matrix(-0.771447 0.636294 0.636294 0.771447 62.7563 103.812)" stroke="#B3C7F4" stroke-width="4" stroke-linecap="round"/>
<path d="M43.892 95.0285C44.5015 101.317 39.8975 106.909 33.6086 107.519C27.3198 108.128 21.7277 103.524 21.1182 97.2355C20.5087 90.9467 25.1127 85.3546 31.4016 84.7451C37.6904 84.1356 43.2825 88.7396 43.892 95.0285Z" fill="white" stroke="#DCE7FF" stroke-width="3.65872"/>
</svg>
