<svg width="113" height="173" viewBox="0 0 113 173" fill="none" xmlns="http://www.w3.org/2000/svg">
<path d="M105.769 115.718C106.228 130.89 101.109 169.478 90.4818 169.478C79.8546 169.478 81.1859 159.735 75.3673 155.062C69.9406 150.703 59.6262 149.067 53.3554 149.256C25.1884 150.108 4.61911 146.967 3.76796 118.8C2.9168 90.6332 25.0606 67.1094 53.2276 66.2582C81.3945 65.4071 104.918 87.5509 105.769 115.718Z" fill="white" stroke="#DCE7FF" stroke-width="4"/>
<path d="M103.938 48.9091C107.362 75.7631 88.3679 100.308 61.5139 103.732C34.6599 107.156 10.1147 88.1626 6.69069 61.3085C3.26668 34.4545 22.2605 9.90931 49.1145 6.4853C75.9685 3.06129 100.514 22.0551 103.938 48.9091Z" fill="white" stroke="#DCE7FF" stroke-width="3.65872"/>
<circle cx="36.2493" cy="38.3665" r="4.64014" fill="black"/>
<circle cx="66.2283" cy="42.5806" r="4.64014" fill="black"/>
<path d="M45.8401 69.7858C44.9267 69.334 43.82 69.7081 43.3681 70.6215C42.9162 71.5349 43.2904 72.6417 44.2038 73.0936L45.0219 71.4397L45.8401 69.7858ZM45.0219 71.4397C44.2038 73.0936 44.2044 73.0939 44.205 73.0942C44.2053 73.0943 44.206 73.0947 44.2065 73.0949C44.2075 73.0954 44.2086 73.096 44.2099 73.0966C44.2124 73.0978 44.2154 73.0993 44.2188 73.101C44.2257 73.1043 44.2343 73.1085 44.2448 73.1135C44.2658 73.1236 44.2939 73.137 44.3291 73.1533C44.3994 73.186 44.4977 73.2306 44.6222 73.2847C44.8712 73.3926 45.2259 73.5384 45.6723 73.701C46.5633 74.0256 47.8293 74.4209 49.3554 74.7152C52.3946 75.3011 56.5637 75.504 60.8601 73.8429L60.1947 72.1218L59.5293 70.4008C56.0828 71.7333 52.6656 71.595 50.0541 71.0915C48.7548 70.841 47.6794 70.5046 46.9354 70.2335C46.5643 70.0983 46.2781 69.9803 46.0904 69.8989C45.9967 69.8583 45.9278 69.8269 45.8855 69.8072C45.8643 69.7973 45.8498 69.7904 45.8422 69.7868C45.8384 69.7849 45.8363 69.7839 45.8359 69.7838C45.8357 69.7837 45.836 69.7838 45.8367 69.7841C45.8371 69.7843 45.8375 69.7845 45.8381 69.7848C45.8384 69.785 45.8389 69.7852 45.839 69.7853C45.8396 69.7856 45.8401 69.7858 45.0219 71.4397ZM60.1947 72.1218L60.8601 73.8429C65.1942 72.1672 68.1265 69.0361 69.9498 66.4145C70.8671 65.0957 71.5232 63.8784 71.9524 62.9856C72.1674 62.5382 72.3268 62.1696 72.4344 61.907C72.4883 61.7756 72.5294 61.6704 72.5581 61.595C72.5724 61.5573 72.5837 61.5269 72.5919 61.5044C72.5961 61.4932 72.5994 61.4838 72.6021 61.4765C72.6034 61.4729 72.6045 61.4697 72.6055 61.4671C72.6059 61.4658 72.6064 61.4646 72.6067 61.4635C72.6069 61.463 72.6072 61.4623 72.6073 61.462C72.6075 61.4613 72.6077 61.4607 70.8682 60.8452C69.1287 60.2297 69.1289 60.2292 69.1291 60.2286C69.1292 60.2285 69.1294 60.228 69.1295 60.2277C69.1297 60.2271 69.1298 60.2267 69.1299 60.2263C69.1302 60.2257 69.1302 60.2256 69.1301 60.2259C69.1298 60.2266 69.1289 60.2292 69.1272 60.2337C69.1239 60.2427 69.1178 60.2593 69.1088 60.2829C69.0908 60.3303 69.0613 60.406 69.0199 60.507C68.9371 60.709 68.807 61.0109 68.6263 61.3868C68.264 62.1407 67.7035 63.1812 66.9202 64.3074C65.3425 66.5757 62.938 69.0829 59.5293 70.4008L60.1947 72.1218Z" fill="black"/>
<path d="M66.0178 58.5441C69.4669 61.5985 71.6611 62.8326 76.0929 64.0563" stroke="black" stroke-width="3.69037" stroke-linecap="round"/>
<path d="M3.38683 49.3443C4.6943 43.186 43.5575 48.1322 47.0297 48.9015C50.5019 49.6709 53.6091 52.4534 52.5708 58.1144C51.5324 63.7755 49.5324 65.5114 44.6647 65.3109C39.797 65.1103 2.07935 55.5026 3.38683 49.3443Z" fill="#FDB029"/>
<path d="M72.8734 101.165C72.8262 96.761 75.9397 92.9556 80.2657 92.1299C85.085 91.21 89.7658 94.2769 90.8467 99.0626L95.1004 117.895C96.4994 124.089 92.4493 130.199 86.1994 131.323C79.4109 132.543 73.1544 127.368 73.0805 120.471L72.8734 101.165Z" fill="#F14747"/>
<path d="M3.40515 91.7108C3.57869 85.6237 9.01176 81.033 15.0541 81.79C25.8182 83.1386 42.1312 84.9572 54.3375 85.3184C66.7993 85.6871 83.557 84.7905 94.5469 84.0512C100.623 83.6425 105.786 88.536 105.612 94.6231C105.466 99.7422 101.552 103.951 96.4486 104.373C85.7275 105.259 67.5101 106.518 54.2114 106.142C40.8638 105.764 22.6766 103.463 11.9966 101.964C6.92607 101.253 3.25923 96.8289 3.40515 91.7108Z" fill="#F14747"/>
</svg>
