<svg width="168" height="171" viewBox="0 0 168 171" fill="none" xmlns="http://www.w3.org/2000/svg">
<path d="M130.737 48.6124C133.339 75.4603 113.683 99.3341 86.8355 101.936C59.9876 104.538 36.1139 84.8826 33.512 58.0348C30.91 31.1869 50.5653 7.3131 77.4132 4.71119C104.261 2.10928 128.135 21.7645 130.737 48.6124Z" fill="white" stroke="#DCE7FF" stroke-width="3.66667"/>
<circle cx="79.7111" cy="115.205" r="50.8398" fill="white"/>
<path d="M41.7232 80.7831C32.3808 91.0744 27.2493 105.12 28.6956 120.044C31.4161 148.115 56.3777 168.666 84.4489 165.946C112.52 163.225 133.071 138.264 130.35 110.192C129.394 100.328 125.692 91.3922 120.073 84.0686" stroke="#DCE7FF" stroke-width="3.66667"/>
<path d="M67.0149 35.3848C67.0149 37.9311 64.9508 39.9952 62.4045 39.9952C59.8583 39.9952 57.7942 37.9311 57.7942 35.3848C57.7942 32.8386 59.8583 30.7745 62.4045 30.7745C64.9508 30.7745 67.0149 32.8386 67.0149 35.3848Z" fill="black"/>
<path d="M96.8013 39.5717C96.8013 42.1179 94.7371 44.182 92.1909 44.182C89.6447 44.182 87.5805 42.1179 87.5805 39.5717C87.5805 37.0254 89.6447 34.9613 92.1909 34.9613C94.7371 34.9613 96.8013 37.0254 96.8013 39.5717Z" fill="black"/>
<path d="M54.8509 65.4098C54.1412 64.6877 52.9804 64.6777 52.2583 65.3875C51.5362 66.0973 51.5262 67.258 52.236 67.9801L53.5435 66.695L54.8509 65.4098ZM75.9877 75.1454L75.7388 73.329L75.9877 75.1454ZM91.5791 54.3215C90.8417 53.6276 89.6815 53.6629 88.9876 54.4003C88.2937 55.1377 88.329 56.298 89.0664 56.9918L90.3228 55.6567L91.5791 54.3215ZM99.6221 63.1851C100.59 63.4839 101.616 62.9419 101.915 61.9745C102.214 61.0071 101.672 59.9806 100.704 59.6817L100.163 61.4334L99.6221 63.1851ZM53.5435 66.695C52.236 67.9801 52.2365 67.9806 52.237 67.9811C52.2372 67.9814 52.2378 67.9819 52.2382 67.9824C52.2391 67.9833 52.2402 67.9844 52.2414 67.9856C52.2438 67.988 52.2468 67.9911 52.2505 67.9948C52.2578 68.0021 52.2675 68.0118 52.2796 68.0239C52.3039 68.0481 52.3379 68.0816 52.3813 68.1237C52.4681 68.2081 52.5928 68.3271 52.7534 68.4754C53.0746 68.7718 53.5407 69.186 54.1369 69.6741C55.3273 70.6485 57.0479 71.9268 59.1807 73.1506C63.4222 75.5845 69.4516 77.8916 76.2366 76.9618L75.9877 75.1454L75.7388 73.329C70.0641 74.1067 64.8714 72.1886 61.0057 69.9704C59.0849 68.8682 57.5306 67.7136 56.4595 66.8368C55.925 66.3993 55.5137 66.0332 55.2402 65.7808C55.1035 65.6547 55.0015 65.5572 54.936 65.4935C54.9032 65.4617 54.8796 65.4383 54.8653 65.4242C54.8582 65.4171 54.8534 65.4123 54.851 65.4099C54.8498 65.4087 54.8492 65.408 54.8492 65.408C54.8492 65.408 54.8493 65.4082 54.8496 65.4085C54.8498 65.4086 54.8501 65.4089 54.8502 65.409C54.8505 65.4094 54.8509 65.4098 53.5435 66.695ZM75.9877 75.1454L76.2366 76.9618C83.0706 76.0252 88.2663 71.87 91.6797 68.1225C93.3998 66.2341 94.7077 64.4057 95.5871 63.048C96.0276 62.3678 96.3629 61.8022 96.5906 61.4017C96.7045 61.2013 96.7917 61.0419 96.8518 60.9298C96.8818 60.8738 96.9051 60.8295 96.9217 60.7978C96.9299 60.7819 96.9365 60.7692 96.9414 60.7598C96.9438 60.755 96.9458 60.7511 96.9474 60.748C96.9482 60.7464 96.9489 60.7451 96.9495 60.744C96.9498 60.7434 96.9501 60.7427 96.9503 60.7424C96.9506 60.7418 96.9509 60.7412 95.3163 59.9111C93.6816 59.081 93.6819 59.0805 93.6821 59.0801C93.6821 59.08 93.6823 59.0796 93.6824 59.0795C93.6826 59.0791 93.6826 59.079 93.6826 59.0791C93.6825 59.0793 93.682 59.0803 93.6811 59.082C93.6792 59.0856 93.6758 59.0923 93.6707 59.1021C93.6604 59.1217 93.6437 59.1536 93.6204 59.197C93.5738 59.2839 93.5012 59.4168 93.403 59.5896C93.2064 59.9355 92.9076 60.44 92.5095 61.0547C91.7117 62.2866 90.5237 63.9466 88.969 65.6534C85.8331 69.0961 81.3645 72.5581 75.7388 73.329L75.9877 75.1454ZM90.3228 55.6567L89.0664 56.9918C90.7824 58.6066 92.2631 59.8146 93.9249 60.7949C95.5895 61.7768 97.3624 62.4871 99.6221 63.1851L100.163 61.4334L100.704 59.6817C98.5993 59.0315 97.1189 58.4219 95.7878 57.6367C94.454 56.85 93.1968 55.8437 91.5791 54.3215L90.3228 55.6567Z" fill="black"/>
<path d="M30.5822 46.0192C32.0697 39.9252 70.6267 46.0211 74.0616 46.8918C77.4966 47.7625 80.5075 50.6272 79.303 56.2341C78.0984 61.841 76.0543 63.5097 71.2123 63.1635C66.3704 62.8172 29.0947 52.1132 30.5822 46.0192Z" fill="#FDB029"/>
<path d="M98.2264 99.7209C98.3119 95.3335 101.527 91.6372 105.861 90.945C110.688 90.1739 115.258 93.3692 116.19 98.1681L119.86 117.053C121.067 123.264 116.849 129.227 110.591 130.158C103.793 131.169 97.7177 125.826 97.8516 118.955L98.2264 99.7209Z" fill="#F14747"/>
<path d="M29.3554 87.2181C29.7114 81.161 35.2606 76.7525 41.2555 77.6883C51.9353 79.3554 68.1272 81.6575 80.273 82.3846C92.673 83.1269 109.39 82.7382 120.357 82.3327C126.42 82.1085 131.415 87.1375 131.059 93.1945C130.76 98.2885 126.735 102.363 121.639 102.629C110.935 103.189 92.754 103.894 79.5207 103.119C66.2388 102.341 48.1948 99.5022 37.6033 97.6885C32.5748 96.8275 29.056 92.311 29.3554 87.2181Z" fill="#F14747"/>
<g filter="url(#filter0_d_309_516)">
<path d="M126.617 115.204L141.98 96.4579M145.548 92.1042L145.785 91.9168L163.465 77.9059M145.548 92.1042C144.155 93.8044 141.98 96.4579 141.98 96.4579M145.548 92.1042C146.466 88.247 147.899 82.2274 147.899 82.2274C148.781 78.7242 149.725 70.0236 149.725 70.0236M141.98 96.4579L157.042 94.8086" stroke="#8C5936" stroke-width="6.403" stroke-linecap="round"/>
</g>
<g filter="url(#filter1_d_309_516)">
<path d="M34.7908 109.546L19.4278 90.7993M19.4278 90.7993C19.4278 90.7993 17.5371 87.9962 16.3721 86.132C12.6433 80.1654 9.71606 70.1782 9.71606 70.1782M19.4278 90.7993L4.36599 89.1499" stroke="#8C5936" stroke-width="6.403" stroke-linecap="round"/>
</g>
<defs>
<filter id="filter0_d_309_516" x="122.251" y="65.6576" width="45.5793" height="53.9127" filterUnits="userSpaceOnUse" color-interpolation-filters="sRGB">
<feFlood flood-opacity="0" result="BackgroundImageFix"/>
<feColorMatrix in="SourceAlpha" type="matrix" values="0 0 0 0 0 0 0 0 0 0 0 0 0 0 0 0 0 0 127 0" result="hardAlpha"/>
<feOffset/>
<feGaussianBlur stdDeviation="0.582091"/>
<feComposite in2="hardAlpha" operator="out"/>
<feColorMatrix type="matrix" values="0 0 0 0 0 0 0 0 0 0 0 0 0 0 0 0 0 0 0.1 0"/>
<feBlend mode="normal" in2="BackgroundImageFix" result="effect1_dropShadow_309_516"/>
<feBlend mode="normal" in="SourceGraphic" in2="effect1_dropShadow_309_516" result="shape"/>
</filter>
<filter id="filter1_d_309_516" x="0.000125527" y="65.8116" width="39.1565" height="48.0999" filterUnits="userSpaceOnUse" color-interpolation-filters="sRGB">
<feFlood flood-opacity="0" result="BackgroundImageFix"/>
<feColorMatrix in="SourceAlpha" type="matrix" values="0 0 0 0 0 0 0 0 0 0 0 0 0 0 0 0 0 0 127 0" result="hardAlpha"/>
<feOffset/>
<feGaussianBlur stdDeviation="0.582091"/>
<feComposite in2="hardAlpha" operator="out"/>
<feColorMatrix type="matrix" values="0 0 0 0 0 0 0 0 0 0 0 0 0 0 0 0 0 0 0.1 0"/>
<feBlend mode="normal" in2="BackgroundImageFix" result="effect1_dropShadow_309_516"/>
<feBlend mode="normal" in="SourceGraphic" in2="effect1_dropShadow_309_516" result="shape"/>
</filter>
</defs>
</svg>
