<svg width="109" height="157" viewBox="0 0 109 157" fill="none" xmlns="http://www.w3.org/2000/svg">
<path d="M104.062 44.4351C106.624 68.976 87.2712 90.7983 60.8367 93.1766C34.4022 95.555 10.896 77.5887 8.33419 53.0478C5.77234 28.507 25.1249 6.68466 51.5594 4.30633C77.9939 1.928 101.5 19.8943 104.062 44.4351Z" fill="white" stroke="#DCE7FF" stroke-width="2.86965"/>
<ellipse cx="53.822" cy="105.305" rx="50.0569" ry="46.4711" fill="white"/>
<path d="M16.4191 73.8413C7.22054 83.2483 2.16801 96.0867 3.5921 109.729C6.27067 135.388 30.8479 154.173 58.4869 151.686C86.1258 149.199 106.36 126.383 103.682 100.723C102.74 91.7067 99.0949 83.5388 93.5626 76.8445" stroke="#DCE7FF" stroke-width="2.86965"/>
<path d="M41.321 32.3438C41.321 34.6712 39.2887 36.558 36.7817 36.558C34.2747 36.558 32.2423 34.6712 32.2423 32.3438C32.2423 30.0163 34.2747 28.1296 36.7817 28.1296C39.2887 28.1296 41.321 30.0163 41.321 32.3438Z" fill="black"/>
<path d="M70.6487 36.1708C70.6487 38.4982 68.6164 40.385 66.1094 40.385C63.6024 40.385 61.57 38.4982 61.57 36.1708C61.57 33.8434 63.6024 31.9566 66.1094 31.9566C68.6164 31.9566 70.6487 33.8434 70.6487 36.1708Z" fill="black"/>
<path d="M29.0423 59.9204C28.4662 59.3763 27.5581 59.4022 27.014 59.9783C26.4699 60.5544 26.4958 61.4625 27.0719 62.0067L28.0571 60.9635L29.0423 59.9204ZM50.1558 68.6878L49.9747 67.2645L50.1558 68.6878ZM65.2141 49.7932C64.6173 49.2719 63.7109 49.333 63.1895 49.9298C62.6682 50.5266 62.7293 51.433 63.3261 51.9544L64.2701 50.8738L65.2141 49.7932ZM73.5635 57.5334C74.3252 57.7518 75.1198 57.3114 75.3382 56.5497C75.5567 55.7879 75.1163 54.9933 74.3545 54.7749L73.959 56.1541L73.5635 57.5334ZM28.0571 60.9635C27.0719 62.0067 27.0723 62.007 27.0728 62.0075C27.0729 62.0076 27.0734 62.0081 27.0738 62.0084C27.0746 62.0092 27.0755 62.0101 27.0766 62.0111C27.0788 62.0131 27.0816 62.0157 27.0849 62.0189C27.0917 62.0252 27.1008 62.0337 27.1123 62.0443C27.1354 62.0656 27.1679 62.0954 27.2097 62.133C27.2933 62.2084 27.414 62.3154 27.57 62.4491C27.8819 62.7163 28.3356 63.0907 28.9167 63.5323C30.0774 64.4144 31.7544 65.5709 33.8314 66.6773C37.9691 68.8815 43.8007 70.9428 50.3369 70.1112L50.1558 68.6878L49.9747 67.2645C44.2431 67.9937 39.0253 66.1928 35.1806 64.1446C33.2664 63.1249 31.719 62.0576 30.653 61.2476C30.1208 60.8431 29.7107 60.5043 29.4371 60.2699C29.3003 60.1527 29.1978 60.0617 29.1314 60.0018C29.0982 59.9719 29.074 59.9497 29.0591 59.936C29.0516 59.9291 29.0465 59.9243 29.0437 59.9217C29.0423 59.9204 29.0415 59.9196 29.0412 59.9194C29.0411 59.9193 29.0412 59.9193 29.0413 59.9195C29.0414 59.9196 29.0417 59.9198 29.0417 59.9199C29.042 59.9201 29.0423 59.9204 28.0571 60.9635ZM50.1558 68.6878L50.3369 70.1112C56.9142 69.2744 61.9517 65.5533 65.2959 62.1448C66.9758 60.4326 68.2546 58.7733 69.115 57.5399C69.5459 56.9224 69.8736 56.4091 70.0958 56.0462C70.207 55.8647 70.2919 55.7205 70.3502 55.6195C70.3794 55.569 70.402 55.5292 70.4179 55.5009C70.4258 55.4868 70.4321 55.4755 70.4367 55.4672C70.439 55.463 70.4409 55.4596 70.4424 55.4569C70.4431 55.4556 70.4437 55.4544 70.4443 55.4535C70.4445 55.453 70.4449 55.4524 70.445 55.4522C70.4453 55.4516 70.4455 55.4512 69.1867 54.7626C67.9279 54.0741 67.9281 54.0737 67.9283 54.0733C67.9283 54.0733 67.9285 54.073 67.9285 54.0729C67.9287 54.0727 67.9287 54.0726 67.9286 54.0728C67.9284 54.0731 67.9278 54.0742 67.9268 54.076C67.9249 54.0795 67.9213 54.086 67.916 54.0953C67.9056 54.1139 67.8887 54.1438 67.8653 54.1842C67.8186 54.265 67.7462 54.3881 67.6485 54.5477C67.453 54.867 67.1564 55.332 66.7616 55.898C65.9706 57.0317 64.7918 58.5611 63.2475 60.1351C60.1432 63.299 55.6652 66.5405 49.9747 67.2645L50.1558 68.6878ZM64.2701 50.8738L63.3261 51.9544C65.0076 53.4233 66.4433 54.5086 68.0447 55.3856C69.6466 56.2628 71.3583 56.901 73.5635 57.5334L73.959 56.1541L74.3545 54.7749C72.2623 54.1749 70.7707 53.6066 69.4231 52.8686C68.075 52.1304 66.8149 51.1917 65.2141 49.7932L64.2701 50.8738Z" fill="black"/>
<path d="M5.44951 42.0645C6.91413 36.4941 44.8774 42.0661 48.2595 42.862C51.6416 43.6579 54.6061 46.2765 53.4201 51.4016C52.2341 56.5267 50.2215 58.052 45.454 57.7355C40.6866 57.419 3.9849 47.6348 5.44951 42.0645Z" fill="#FDB029"/>
<path d="M72.0525 91.1517C72.1367 87.1414 75.3026 83.7627 79.5692 83.13C84.3224 82.4251 88.8215 85.3459 89.7397 89.7324L93.3529 106.994C94.5412 112.671 90.3885 118.122 84.2265 118.973C77.5334 119.897 71.5516 115.014 71.6835 108.733L72.0525 91.1517Z" fill="#165B33"/>
<path d="M4.24196 79.7234C4.5925 74.1867 10.0562 70.157 15.9588 71.0124C26.4742 72.5362 42.4168 74.6406 54.3755 75.3052C66.5846 75.9837 83.0438 75.6284 93.8423 75.2577C99.8123 75.0528 104.73 79.6496 104.38 85.1862C104.085 89.8424 100.122 93.5664 95.105 93.8101C84.5656 94.3219 66.6644 94.9664 53.6348 94.2581C40.5575 93.5472 22.7913 90.9518 12.3629 89.294C7.41181 88.507 3.94721 84.3786 4.24196 79.7234Z" fill="#165B33"/>
</svg>
