<svg width="112" height="172" viewBox="0 0 112 172" fill="none" xmlns="http://www.w3.org/2000/svg">
<path d="M105.159 115.05C105.614 130.134 100.525 168.499 89.9591 168.499C79.3934 168.499 80.717 158.812 74.9319 154.166C69.5366 149.833 59.2818 148.206 53.0472 148.395C25.0429 149.241 4.59236 146.118 3.74612 118.114C2.89988 90.1099 24.9158 66.7219 52.9201 65.8757C80.9244 65.0295 104.312 87.0454 105.159 115.05Z" fill="white" stroke="#DCE7FF" stroke-width="4"/>
<path d="M103.337 48.6267C106.741 75.3256 87.8573 99.7291 61.1583 103.133C34.4594 106.538 10.0559 87.6535 6.65171 60.9545C3.24747 34.2556 22.1316 9.85214 48.8305 6.4479C75.5295 3.04366 99.9329 21.9278 103.337 48.6267Z" fill="white" stroke="#DCE7FF" stroke-width="3.65872"/>
<path d="M28.8196 35.1547C28.8196 35.1547 27.9262 41.8125 33.7821 42.6078C39.6379 43.403 40.7385 36.3916 40.7385 36.3916" stroke="black" stroke-width="3" stroke-linecap="round"/>
<path d="M61.6367 38.8881C61.6367 38.8881 60.7433 45.5459 66.5992 46.3411C72.4551 47.1364 73.5556 40.1249 73.5556 40.1249" stroke="black" stroke-width="3" stroke-linecap="round"/>
<path d="M54.731 76.7657C54.731 76.7657 56.5558 69.7593 62.8516 66.6381C69.1474 63.517 76.1344 66.7156 76.1344 66.7156" stroke="black" stroke-width="4" stroke-linecap="round"/>
<path d="M3.36718 49.0591C4.66713 42.9363 43.3066 47.854 46.7587 48.6189C50.2109 49.3838 53.3003 52.1503 52.2679 57.7788C51.2355 63.4073 49.247 65.1331 44.4073 64.9337C39.5676 64.7343 2.06724 55.1819 3.36718 49.0591Z" fill="#FDB029"/>
<path d="M72.4525 100.581C72.4055 96.2024 75.5011 92.4188 79.8022 91.5979C84.5938 90.6833 89.2476 93.7325 90.3223 98.4907L94.5515 117.215C95.9425 123.373 91.9156 129.448 85.7017 130.565C78.9523 131.778 72.7319 126.633 72.6583 119.776L72.4525 100.581Z" fill="#F14747"/>
<path d="M3.3853 91.1868C3.55784 85.1349 8.95953 80.5707 14.9669 81.3233C25.6689 82.6642 41.8877 84.4723 54.0235 84.8314C66.4133 85.198 83.0743 84.3065 94.0007 83.5715C100.041 83.1651 105.175 88.0304 105.002 94.0823C104.857 99.1719 100.966 103.356 95.8914 103.776C85.2322 104.657 67.12 105.908 53.8981 105.534C40.6276 105.159 22.5454 102.871 11.9271 101.381C6.88588 100.674 3.24023 96.2754 3.3853 91.1868Z" fill="#F14747"/>
</svg>
