<svg width="155" height="189" viewBox="0 0 155 189" fill="none" xmlns="http://www.w3.org/2000/svg">
<path d="M146.176 68.7079C151.015 106.654 124.175 141.338 86.229 146.176C48.2827 151.015 13.5989 124.175 8.76057 86.229C3.92224 48.2827 30.7616 13.5989 68.7079 8.76055C106.654 3.92222 141.338 30.7615 146.176 68.7079Z" fill="white" stroke="#DCE7FF" stroke-width="5.20001"/>
<path d="M64.183 98.2952C62.8959 97.6585 61.3364 98.1857 60.6996 99.4727C60.0629 100.76 60.5901 102.319 61.8772 102.956L63.0301 100.626L64.183 98.2952ZM63.0301 100.626C61.8772 102.956 61.878 102.956 61.879 102.957C61.8793 102.957 61.8803 102.958 61.881 102.958C61.8825 102.959 61.8841 102.959 61.8858 102.96C61.8894 102.962 61.8936 102.964 61.8984 102.966C61.908 102.971 61.9203 102.977 61.935 102.984C61.9646 102.998 62.0042 103.017 62.0538 103.04C62.1528 103.086 62.2913 103.149 62.4668 103.225C62.8176 103.377 63.3174 103.583 63.9464 103.812C65.202 104.269 66.9859 104.826 69.1363 105.241C73.4187 106.067 79.2932 106.352 85.3472 104.012L84.4096 101.587L83.472 99.1617C78.6157 101.039 73.8005 100.845 70.1207 100.135C68.29 99.7821 66.7747 99.3079 65.7263 98.926C65.2033 98.7355 64.8 98.5692 64.5357 98.4546C64.4036 98.3973 64.3065 98.353 64.2468 98.3253C64.217 98.3114 64.1966 98.3017 64.1858 98.2965C64.1804 98.2939 64.1775 98.2925 64.177 98.2923C64.1767 98.2921 64.1771 98.2923 64.1781 98.2928C64.1786 98.2931 64.1793 98.2934 64.1801 98.2938C64.1805 98.294 64.1812 98.2943 64.1814 98.2944C64.1822 98.2948 64.183 98.2952 63.0301 100.626ZM84.4096 101.587L85.3472 104.012C91.4544 101.651 95.5861 97.2387 98.1554 93.5448C99.4479 91.6865 100.372 89.9712 100.977 88.7131C101.28 88.0827 101.505 87.5633 101.656 87.1932C101.732 87.0081 101.79 86.86 101.831 86.7537C101.851 86.7005 101.867 86.6578 101.878 86.626C101.884 86.6102 101.889 86.5971 101.893 86.5868C101.894 86.5816 101.896 86.5772 101.897 86.5734C101.898 86.5716 101.899 86.5699 101.899 86.5684C101.899 86.5676 101.9 86.5666 101.9 86.5663C101.9 86.5653 101.901 86.5644 99.4495 85.6972C96.9984 84.8299 96.9986 84.8291 96.9989 84.8283C96.999 84.8281 96.9993 84.8274 96.9994 84.827C96.9997 84.8262 96.9999 84.8256 97.0001 84.8251C97.0004 84.8243 97.0004 84.824 97.0003 84.8245C96.9999 84.8255 96.9986 84.8292 96.9963 84.8355C96.9916 84.8482 96.983 84.8715 96.9703 84.9049C96.9449 84.9716 96.9034 85.0784 96.8451 85.2206C96.7283 85.5053 96.545 85.9307 96.2904 86.4604C95.7798 87.5226 94.9901 88.9888 93.8864 90.5756C91.6633 93.7719 88.2751 97.3048 83.472 99.1617L84.4096 101.587Z" fill="black"/>
<path d="M92.6147 82.4548C97.4748 86.7588 100.567 88.4978 106.811 90.222" stroke="black" stroke-width="5.20001" stroke-linecap="round"/>
<path d="M4.09234 69.3224C5.93991 60.6202 60.8568 67.6097 65.7633 68.6968C70.6698 69.784 75.0606 73.7158 73.5933 81.7154C72.126 89.715 69.2998 92.1679 62.4213 91.8845C55.5428 91.6011 2.24477 78.0246 4.09234 69.3224Z" fill="#FDB029"/>
<path d="M102.281 142.549C102.214 136.326 106.614 130.948 112.726 129.782C119.537 128.482 126.151 132.815 127.678 139.578L133.689 166.19C135.666 174.943 129.943 183.577 121.111 185.164C111.519 186.889 102.678 179.576 102.573 169.83L102.281 142.549Z" fill="#F14747"/>
<path d="M4.11823 128.776C4.36345 120.175 12.0407 113.688 20.5788 114.757C35.7892 116.663 58.8405 119.233 76.0886 119.743C93.6978 120.264 117.378 118.997 132.907 117.953C141.492 117.375 148.788 124.29 148.543 132.891C148.337 140.125 142.806 146.072 135.594 146.669C120.445 147.921 94.7023 149.699 75.9104 149.168C57.0495 148.634 31.3499 145.382 16.2585 143.265C9.09349 142.26 3.91204 136.008 4.11823 128.776Z" fill="#F14747"/>
<circle cx="50.6687" cy="54.0233" r="6.53831" fill="black"/>
<circle cx="92.9111" cy="59.9615" r="6.53831" fill="black"/>
<path d="M45.8044 127.532C46.9042 126.165 48.6473 124.628 50.8074 124.944L51.0173 124.98L51.3484 125.058C52.107 125.266 52.78 125.654 53.3103 126.237C53.8998 126.885 54.199 127.648 54.3435 128.356C54.6184 129.703 54.4007 131.204 54.1492 132.408C53.9831 133.202 53.7558 134.058 53.5623 134.78C53.6772 134.746 53.7968 134.713 53.9197 134.676C55.6392 134.165 58.0875 133.37 60.4792 132.705C62.8791 132.039 65.4656 131.431 67.6355 131.294C68.7144 131.226 69.835 131.264 70.8308 131.554C71.8543 131.853 72.9335 132.483 73.5095 133.707C74.0006 134.751 74.0204 135.861 73.5486 136.87C73.1253 137.776 72.3921 138.418 71.7263 138.867C70.4483 139.728 68.7214 140.329 67.2791 140.764C67.2844 140.77 67.2903 140.776 67.2957 140.782C68.176 141.778 68.5854 142.921 68.7683 143.922C68.9497 144.916 68.9211 145.842 68.8708 146.495C68.8628 146.599 68.8507 146.701 68.8416 146.796C68.9014 146.866 68.9673 146.939 69.031 147.017C69.4629 147.544 70.0335 148.327 70.4451 149.337C70.8633 150.364 71.116 151.622 70.907 153.058C70.6984 154.49 70.0494 155.967 68.8689 157.463C66.7631 160.132 64.7965 161.904 62.575 162.967C60.3442 164.034 58.0587 164.288 55.5291 164.288C52.3613 164.288 49.2061 162.428 46.698 159.756C44.1461 157.037 42.037 153.254 40.9919 148.88C39.8844 144.244 40.8723 138.234 42.5818 133.592C43.4445 131.249 44.5491 129.092 45.8044 127.532Z" fill="white" stroke="#DCE7FF" stroke-width="4"/>
</svg>
