<svg width="111" height="171" viewBox="0 0 111 171" fill="none" xmlns="http://www.w3.org/2000/svg">
<path d="M105.46 48.5067C108.056 75.2963 88.4434 99.1182 61.6538 101.714C34.8643 104.311 11.0423 84.6982 8.44606 57.9086C5.8498 31.119 25.4624 7.29705 52.252 4.70079C79.0415 2.10453 102.863 21.7171 105.46 48.5067Z" fill="white" stroke="#DCE7FF" stroke-width="3.65872"/>
<circle cx="54.5446" cy="114.954" r="50.7294" fill="white"/>
<path d="M16.6396 80.6076C7.31753 90.8766 2.19713 104.891 3.64035 119.783C6.35491 147.794 31.2623 168.3 59.2725 165.585C87.2828 162.871 107.789 137.963 105.074 109.953C104.121 100.11 100.426 91.1937 94.8195 83.886" stroke="#DCE7FF" stroke-width="3.65872"/>
<path d="M31.383 32.79C31.383 32.79 30.2889 39.4177 36.1181 40.3895C41.9473 41.3613 43.2591 34.3862 43.2591 34.3862" stroke="black" stroke-width="2.92697" stroke-linecap="round"/>
<path d="M64.0725 37.5127C64.0725 37.5127 62.9784 44.1405 68.8076 45.1123C74.6368 46.084 75.9486 39.109 75.9486 39.109" stroke="black" stroke-width="2.92697" stroke-linecap="round"/>
<path d="M29.7387 65.2677C29.0305 64.5471 27.8722 64.5372 27.1517 65.2454C26.4312 65.9536 26.4212 67.1119 27.1294 67.8324L28.4341 66.55L29.7387 65.2677ZM28.4341 66.55C27.1294 67.8324 27.1299 67.8329 27.1304 67.8334C27.1307 67.8337 27.1312 67.8342 27.1317 67.8347C27.1326 67.8356 27.1336 67.8367 27.1348 67.8379C27.1372 67.8403 27.1403 67.8434 27.1439 67.847C27.1512 67.8543 27.1609 67.8641 27.173 67.8761C27.1972 67.9002 27.2311 67.9337 27.2744 67.9757C27.3611 68.0599 27.4854 68.1786 27.6458 68.3266C27.9663 68.6224 28.4313 69.0357 29.0263 69.5227C30.214 70.495 31.9309 71.7705 34.0591 72.9917C38.2913 75.4203 44.3077 77.7224 51.078 76.7946L50.8296 74.9821L50.5812 73.1697C44.9188 73.9457 39.7375 72.0318 35.8801 69.8183C33.9635 68.7185 32.4126 67.5665 31.3438 66.6916C30.8105 66.255 30.4 65.8898 30.1271 65.6379C29.9908 65.512 29.889 65.4147 29.8236 65.3512C29.7909 65.3194 29.7673 65.2962 29.7531 65.282C29.746 65.2749 29.7412 65.2702 29.7388 65.2677C29.7376 65.2665 29.737 65.2659 29.737 65.2659C29.737 65.2659 29.7371 65.266 29.7374 65.2663C29.7375 65.2665 29.7379 65.2668 29.7379 65.2669C29.7383 65.2673 29.7387 65.2677 28.4341 66.55ZM50.8296 74.9821L51.078 76.7946C57.8971 75.86 63.0815 71.7138 66.4876 67.9745C68.2038 66.0902 69.5089 64.2658 70.3864 62.911C70.826 62.2323 71.1605 61.6679 71.3878 61.2683C71.5014 61.0683 71.5884 60.9093 71.6484 60.7974C71.6784 60.7415 71.7016 60.6973 71.7181 60.6657C71.7264 60.6499 71.7329 60.6372 71.7378 60.6277C71.7402 60.623 71.7422 60.6191 71.7438 60.616C71.7446 60.6144 71.7453 60.6131 71.7459 60.612C71.7462 60.6114 71.7465 60.6107 71.7467 60.6104C71.747 60.6098 71.7473 60.6092 70.1162 59.7809C68.4851 58.9526 68.4853 58.9521 68.4855 58.9517C68.4856 58.9516 68.4858 58.9512 68.4859 58.9511C68.486 58.9508 68.4861 58.9506 68.486 58.9507C68.486 58.9509 68.4855 58.9519 68.4845 58.9537C68.4827 58.9572 68.4793 58.9639 68.4742 58.9737C68.464 58.9932 68.4472 59.025 68.424 59.0684C68.3775 59.1551 68.3051 59.2877 68.207 59.4601C68.0109 59.8052 67.7128 60.3087 67.3156 60.922C66.5194 62.1512 65.334 63.8076 63.7827 65.5107C60.6536 68.946 56.1948 72.4004 50.5812 73.1697L50.8296 74.9821Z" fill="black"/>
<path d="M65.1333 55.5357C68.4598 58.6659 70.5972 59.9545 74.9524 61.2999" stroke="black" stroke-width="3.65872" stroke-linecap="round"/>
<path d="M5.52231 45.9192C7.0066 39.8385 45.4799 45.9211 48.9074 46.7899C52.3349 47.6587 55.3392 50.5172 54.1373 56.1119C52.9354 61.7067 50.8957 63.3717 46.0642 63.0262C41.2328 62.6807 4.03802 52 5.52231 45.9192Z" fill="#FDB029"/>
<path d="M73.0198 99.5039C73.1052 95.1261 76.3136 91.4378 80.6375 90.7471C85.4545 89.9777 90.0141 93.1661 90.9446 97.9546L94.6063 116.798C95.8107 122.996 91.6022 128.946 85.3574 129.875C78.5744 130.884 72.5122 125.553 72.6458 118.696L73.0198 99.5039Z" fill="#F14747"/>
<path d="M4.29837 88.0286C4.65362 81.9846 10.1907 77.5857 16.1726 78.5194C26.8293 80.1829 42.986 82.4801 55.1054 83.2055C67.4785 83.9462 84.1588 83.5584 95.1024 83.1537C101.153 82.93 106.137 87.9481 105.781 93.992C105.483 99.0749 101.467 103.14 96.3821 103.406C85.7011 103.965 67.5594 104.668 54.3548 103.895C41.1017 103.119 23.0969 100.286 12.5284 98.4762C7.5108 97.617 3.99966 93.1104 4.29837 88.0286Z" fill="#F14747"/>
</svg>
