<svg width="155" height="206" viewBox="0 0 155 206" fill="none" xmlns="http://www.w3.org/2000/svg">
<path d="M146.176 68.7079C151.015 106.654 124.175 141.338 86.229 146.176C48.2827 151.015 13.5989 124.175 8.76057 86.229C3.92224 48.2827 30.7616 13.5989 68.7079 8.76055C106.654 3.92222 141.338 30.7615 146.176 68.7079Z" fill="white" stroke="#DCE7FF" stroke-width="5.20001"/>
<path d="M64.183 98.2952C62.8959 97.6585 61.3364 98.1857 60.6996 99.4727C60.0629 100.76 60.5901 102.319 61.8772 102.956L63.0301 100.626L64.183 98.2952ZM63.0301 100.626C61.8772 102.956 61.878 102.956 61.879 102.957C61.8793 102.957 61.8803 102.958 61.881 102.958C61.8825 102.959 61.8841 102.959 61.8858 102.96C61.8894 102.962 61.8936 102.964 61.8984 102.966C61.908 102.971 61.9203 102.977 61.935 102.984C61.9646 102.998 62.0042 103.017 62.0538 103.04C62.1528 103.086 62.2913 103.149 62.4668 103.225C62.8176 103.377 63.3174 103.583 63.9464 103.812C65.202 104.269 66.9859 104.826 69.1363 105.241C73.4187 106.067 79.2932 106.352 85.3472 104.012L84.4096 101.587L83.472 99.1617C78.6157 101.039 73.8005 100.845 70.1207 100.135C68.29 99.7821 66.7747 99.3079 65.7263 98.926C65.2033 98.7355 64.8 98.5692 64.5357 98.4546C64.4036 98.3973 64.3065 98.353 64.2468 98.3253C64.217 98.3114 64.1966 98.3017 64.1858 98.2965C64.1804 98.2939 64.1775 98.2925 64.177 98.2923C64.1767 98.2921 64.1771 98.2923 64.1781 98.2928C64.1786 98.2931 64.1793 98.2934 64.1801 98.2938C64.1805 98.294 64.1812 98.2943 64.1814 98.2944C64.1822 98.2948 64.183 98.2952 63.0301 100.626ZM84.4096 101.587L85.3472 104.012C91.4544 101.651 95.5861 97.2387 98.1554 93.5448C99.4479 91.6865 100.372 89.9712 100.977 88.7131C101.28 88.0827 101.505 87.5633 101.656 87.1932C101.732 87.0081 101.79 86.86 101.831 86.7537C101.851 86.7005 101.867 86.6578 101.878 86.626C101.884 86.6102 101.889 86.5971 101.893 86.5868C101.894 86.5816 101.896 86.5772 101.897 86.5734C101.898 86.5716 101.899 86.5699 101.899 86.5684C101.899 86.5676 101.9 86.5666 101.9 86.5663C101.9 86.5653 101.901 86.5644 99.4495 85.6972C96.9984 84.8299 96.9986 84.8291 96.9989 84.8283C96.999 84.8281 96.9993 84.8274 96.9994 84.827C96.9997 84.8262 96.9999 84.8256 97.0001 84.8251C97.0004 84.8243 97.0004 84.824 97.0003 84.8245C96.9999 84.8255 96.9986 84.8292 96.9963 84.8355C96.9916 84.8482 96.983 84.8715 96.9703 84.9049C96.9449 84.9716 96.9034 85.0784 96.8451 85.2206C96.7283 85.5053 96.545 85.9307 96.2904 86.4604C95.7798 87.5226 94.9901 88.9888 93.8864 90.5756C91.6633 93.7719 88.2751 97.3048 83.472 99.1617L84.4096 101.587Z" fill="black"/>
<path d="M92.6147 82.4548C97.4748 86.7588 100.567 88.4978 106.811 90.222" stroke="black" stroke-width="5.20001" stroke-linecap="round"/>
<path d="M4.09234 69.3224C5.93991 60.6202 60.8568 67.6097 65.7633 68.6968C70.6698 69.784 75.0606 73.7158 73.5933 81.7154C72.126 89.715 69.2998 92.1679 62.4213 91.8845C55.5428 91.6011 2.24477 78.0246 4.09234 69.3224Z" fill="#FDB029"/>
<path d="M102.281 142.549C102.214 136.326 106.614 130.948 112.726 129.782C119.537 128.482 126.151 132.815 127.678 139.578L133.689 166.19C135.666 174.943 129.943 183.577 121.111 185.164C111.519 186.889 102.678 179.576 102.573 169.83L102.281 142.549Z" fill="#F14747"/>
<path d="M4.11823 130.776C4.36345 122.175 12.0407 115.688 20.5788 116.757C35.7892 118.663 58.8405 121.233 76.0886 121.743C93.6978 122.264 117.378 120.997 132.907 119.953C141.492 119.375 148.788 126.29 148.543 134.891C148.337 142.125 142.806 148.072 135.594 148.669C120.445 149.921 94.7023 151.699 75.9104 151.168C57.0495 150.634 31.3499 147.382 16.2585 145.265C9.09349 144.26 3.91204 138.008 4.11823 130.776Z" fill="#F14747"/>
<rect x="38.5249" y="149.937" width="69.0705" height="53.0156" rx="5.81746" fill="white" stroke="#B3C7F4" stroke-width="4.65397"/>
<line x1="40.1811" y1="152.505" x2="72.745" y2="179.364" stroke="#B3C7F4" stroke-width="4.65397" stroke-linecap="round"/>
<line x1="2.32699" y1="-2.32699" x2="44.5385" y2="-2.32699" transform="matrix(-0.771447 0.636294 0.636294 0.771447 109.215 152.819)" stroke="#B3C7F4" stroke-width="4.65397" stroke-linecap="round"/>
<circle cx="50.6687" cy="54.0233" r="6.53831" fill="black"/>
<circle cx="92.9111" cy="59.9615" r="6.53831" fill="black"/>
<circle cx="36.8864" cy="145.914" r="14.9882" fill="white" stroke="#DCE7FF" stroke-width="4.37071"/>
<circle cx="105.891" cy="145.914" r="14.9882" fill="white" stroke="#DCE7FF" stroke-width="4.37071"/>
</svg>
