<svg width="109" height="157" viewBox="0 0 109 157" fill="none" xmlns="http://www.w3.org/2000/svg">
<path d="M104.062 44.4353C106.624 68.9762 87.2712 90.7985 60.8367 93.1768C34.4022 95.5552 10.896 77.5889 8.33419 53.048C5.77234 28.5072 25.1249 6.68484 51.5594 4.30651C77.9939 1.92818 101.5 19.8945 104.062 44.4353Z" fill="white" stroke="#DCE7FF" stroke-width="2.86965"/>
<ellipse cx="53.822" cy="105.305" rx="50.0569" ry="46.4711" fill="white"/>
<path d="M16.4191 73.8415C7.22054 83.2485 2.16801 96.0869 3.5921 109.729C6.27067 135.388 30.8479 154.173 58.4869 151.686C86.1258 149.199 106.36 126.383 103.682 100.724C102.74 91.7069 99.0949 83.539 93.5626 76.8447" stroke="#DCE7FF" stroke-width="2.86965"/>
<path d="M41.321 32.3439C41.321 34.6714 39.2887 36.5581 36.7817 36.5581C34.2747 36.5581 32.2423 34.6714 32.2423 32.3439C32.2423 30.0165 34.2747 28.1298 36.7817 28.1298C39.2887 28.1298 41.321 30.0165 41.321 32.3439Z" fill="black"/>
<path d="M70.6487 36.171C70.6487 38.4984 68.6164 40.3852 66.1094 40.3852C63.6024 40.3852 61.57 38.4984 61.57 36.171C61.57 33.8436 63.6024 31.9568 66.1094 31.9568C68.6164 31.9568 70.6487 33.8436 70.6487 36.171Z" fill="black"/>
<path d="M29.0423 59.9206C28.4662 59.3765 27.5581 59.4024 27.014 59.9785C26.4699 60.5546 26.4958 61.4627 27.0719 62.0068L28.0571 60.9637L29.0423 59.9206ZM50.1558 68.688L49.9747 67.2647L50.1558 68.688ZM65.2141 49.7934C64.6173 49.272 63.7109 49.3332 63.1895 49.93C62.6682 50.5268 62.7293 51.4332 63.3261 51.9545L64.2701 50.874L65.2141 49.7934ZM73.5635 57.5335C74.3252 57.752 75.1198 57.3116 75.3382 56.5498C75.5567 55.7881 75.1163 54.9935 74.3545 54.7751L73.959 56.1543L73.5635 57.5335ZM28.0571 60.9637C27.0719 62.0068 27.0723 62.0072 27.0728 62.0076C27.0729 62.0078 27.0734 62.0083 27.0738 62.0086C27.0746 62.0094 27.0755 62.0102 27.0766 62.0113C27.0788 62.0133 27.0816 62.0159 27.0849 62.0191C27.0917 62.0254 27.1008 62.0339 27.1123 62.0445C27.1354 62.0658 27.1679 62.0955 27.2097 62.1332C27.2933 62.2086 27.414 62.3156 27.57 62.4492C27.8819 62.7165 28.3356 63.0909 28.9167 63.5325C30.0774 64.4146 31.7544 65.5711 33.8314 66.6775C37.9691 68.8817 43.8007 70.943 50.3369 70.1114L50.1558 68.688L49.9747 67.2647C44.2431 67.9939 39.0253 66.193 35.1806 64.1448C33.2664 63.1251 31.719 62.0578 30.653 61.2478C30.1208 60.8433 29.7107 60.5045 29.4371 60.2701C29.3003 60.1529 29.1978 60.0619 29.1314 60.002C29.0982 59.9721 29.074 59.9499 29.0591 59.9361C29.0516 59.9293 29.0465 59.9245 29.0437 59.9219C29.0423 59.9206 29.0415 59.9198 29.0412 59.9196C29.0411 59.9195 29.0412 59.9195 29.0413 59.9197C29.0414 59.9198 29.0417 59.92 29.0417 59.92C29.042 59.9203 29.0423 59.9206 28.0571 60.9637ZM50.1558 68.688L50.3369 70.1114C56.9142 69.2746 61.9517 65.5535 65.2959 62.145C66.9758 60.4328 68.2546 58.7734 69.115 57.5401C69.5459 56.9225 69.8736 56.4093 70.0958 56.0464C70.207 55.8649 70.2919 55.7207 70.3502 55.6197C70.3794 55.5692 70.402 55.5294 70.4179 55.5011C70.4258 55.487 70.4321 55.4757 70.4367 55.4674C70.439 55.4632 70.4409 55.4598 70.4424 55.4571C70.4431 55.4558 70.4437 55.4546 70.4443 55.4537C70.4445 55.4532 70.4449 55.4526 70.445 55.4524C70.4453 55.4518 70.4455 55.4513 69.1867 54.7628C67.9279 54.0743 67.9281 54.0739 67.9283 54.0735C67.9283 54.0735 67.9285 54.0732 67.9285 54.0731C67.9287 54.0729 67.9287 54.0728 67.9286 54.073C67.9284 54.0733 67.9278 54.0744 67.9268 54.0762C67.9249 54.0797 67.9213 54.0862 67.916 54.0955C67.9056 54.1141 67.8887 54.144 67.8653 54.1844C67.8186 54.2652 67.7462 54.3882 67.6485 54.5479C67.453 54.8672 67.1564 55.3322 66.7616 55.8982C65.9706 57.0319 64.7918 58.5613 63.2475 60.1352C60.1432 63.2992 55.6652 66.5407 49.9747 67.2647L50.1558 68.688ZM64.2701 50.874L63.3261 51.9545C65.0076 53.4235 66.4433 54.5088 68.0447 55.3858C69.6466 56.263 71.3583 56.9011 73.5635 57.5335L73.959 56.1543L74.3545 54.7751C72.2623 54.1751 70.7707 53.6068 69.4231 52.8688C68.075 52.1305 66.8149 51.1919 65.2141 49.7934L64.2701 50.874Z" fill="black"/>
<path d="M5.44951 42.0647C6.91413 36.4944 44.8774 42.0664 48.2595 42.8623C51.6416 43.6582 54.6061 46.2767 53.4201 51.4018C52.2341 56.527 50.2215 58.0522 45.454 57.7357C40.6866 57.4192 3.9849 47.6351 5.44951 42.0647Z" fill="#FDB029"/>
<path d="M72.0525 91.1519C72.1367 87.1415 75.3026 83.7629 79.5692 83.1302C84.3224 82.4253 88.8215 85.3461 89.7397 89.7326L93.3529 106.994C94.5412 112.672 90.3885 118.122 84.2265 118.973C77.5334 119.898 71.5516 115.014 71.6835 108.733L72.0525 91.1519Z" fill="#FFD700"/>
<path d="M4.24196 79.7235C4.5925 74.1869 10.0562 70.1572 15.9588 71.0126C26.4742 72.5364 42.4168 74.6408 54.3755 75.3053C66.5846 75.9838 83.0438 75.6286 93.8423 75.2579C99.8123 75.053 104.73 79.6498 104.38 85.1864C104.085 89.8426 100.122 93.5666 95.105 93.8102C84.5656 94.3221 66.6644 94.9666 53.6348 94.2583C40.5575 93.5474 22.7913 90.952 12.3629 89.2942C7.41181 88.5071 3.94721 84.3788 4.24196 79.7235Z" fill="#FFD700"/>
</svg>
