<svg width="169" height="189" viewBox="0 0 169 189" fill="none" xmlns="http://www.w3.org/2000/svg">
<path d="M159.981 68.7079C164.819 106.654 137.98 141.338 100.033 146.176C62.0872 151.015 27.4033 124.175 22.565 86.229C17.7267 48.2827 44.566 13.5989 82.5123 8.76055C120.459 3.92222 155.142 30.7615 159.981 68.7079Z" fill="white" stroke="#DCE7FF" stroke-width="5.20001"/>
<path d="M77.9874 98.2952C76.7003 97.6585 75.1408 98.1857 74.5041 99.4727C73.8674 100.76 74.3945 102.319 75.6816 102.956L76.8345 100.626L77.9874 98.2952ZM76.8345 100.626C75.6816 102.956 75.6825 102.956 75.6834 102.957C75.6838 102.957 75.6847 102.958 75.6854 102.958C75.6869 102.959 75.6885 102.959 75.6903 102.96C75.6938 102.962 75.698 102.964 75.7028 102.966C75.7125 102.971 75.7247 102.977 75.7395 102.984C75.769 102.998 75.8087 103.017 75.8582 103.04C75.9572 103.086 76.0957 103.149 76.2712 103.225C76.622 103.377 77.1219 103.583 77.7508 103.812C79.0064 104.269 80.7903 104.826 82.9407 105.241C87.2231 106.067 93.0977 106.352 99.1516 104.012L98.214 101.587L97.2765 99.1617C92.4201 101.039 87.6049 100.845 83.9251 100.135C82.0944 99.7821 80.5791 99.3079 79.5308 98.926C79.0078 98.7355 78.6045 98.5692 78.3401 98.4546C78.208 98.3973 78.1109 98.353 78.0513 98.3253C78.0214 98.3114 78.001 98.3017 77.9903 98.2965C77.9849 98.2939 77.9819 98.2925 77.9814 98.2923C77.9812 98.2921 77.9816 98.2923 77.9826 98.2928C77.9831 98.2931 77.9837 98.2934 77.9845 98.2938C77.9849 98.294 77.9856 98.2943 77.9858 98.2944C77.9866 98.2948 77.9874 98.2952 76.8345 100.626ZM98.214 101.587L99.1516 104.012C105.259 101.651 109.391 97.2387 111.96 93.5448C113.252 91.6865 114.177 89.9712 114.782 88.7131C115.085 88.0827 115.309 87.5633 115.461 87.1932C115.537 87.0081 115.595 86.86 115.635 86.7537C115.655 86.7005 115.671 86.6578 115.683 86.626C115.689 86.6102 115.693 86.5971 115.697 86.5868C115.699 86.5816 115.7 86.5772 115.702 86.5734C115.702 86.5716 115.703 86.5699 115.704 86.5684C115.704 86.5676 115.704 86.5666 115.704 86.5663C115.705 86.5653 115.705 86.5644 113.254 85.6972C110.803 84.8299 110.803 84.8291 110.803 84.8283C110.803 84.8281 110.804 84.8274 110.804 84.827C110.804 84.8262 110.804 84.8256 110.804 84.8251C110.805 84.8243 110.805 84.824 110.805 84.8245C110.804 84.8255 110.803 84.8292 110.801 84.8355C110.796 84.8482 110.787 84.8715 110.775 84.9049C110.749 84.9716 110.708 85.0784 110.649 85.2206C110.533 85.5053 110.349 85.9307 110.095 86.4604C109.584 87.5226 108.795 88.9888 107.691 90.5756C105.468 93.7719 102.08 97.3048 97.2765 99.1617L98.214 101.587Z" fill="black"/>
<path d="M106.419 82.4548C111.279 86.7588 114.371 88.4978 120.616 90.222" stroke="black" stroke-width="5.20001" stroke-linecap="round"/>
<path d="M17.8968 69.3224C19.7444 60.6202 74.6613 67.6097 79.5678 68.6968C84.4742 69.784 88.865 73.7158 87.3977 81.7154C85.9304 89.715 83.1043 92.1679 76.2258 91.8845C69.3473 91.6011 16.0492 78.0246 17.8968 69.3224Z" fill="#FDB029"/>
<path d="M116.085 142.549C116.018 136.326 120.418 130.948 126.531 129.782C133.341 128.482 139.955 132.815 141.483 139.578L147.494 166.19C149.471 174.943 143.747 183.577 134.916 185.164C125.323 186.889 116.482 179.576 116.378 169.83L116.085 142.549Z" fill="#F14747"/>
<path d="M17.9227 128.776C18.1679 120.175 25.8451 113.688 34.3833 114.757C49.5936 116.663 72.6449 119.233 89.893 119.743C107.502 120.264 131.182 118.997 146.711 117.953C155.297 117.375 162.593 124.29 162.347 132.891C162.141 140.125 156.611 146.072 149.399 146.669C134.249 147.921 108.507 149.699 89.7148 149.168C70.854 148.634 45.1544 145.382 30.0629 143.265C22.8979 142.26 17.7165 136.008 17.9227 128.776Z" fill="#F14747"/>
<circle cx="64.4731" cy="54.0233" r="6.53831" fill="black"/>
<circle cx="106.716" cy="59.9615" r="6.53831" fill="black"/>
<path d="M22.2802 101.819L19.5837 117.152L17.3494 150.281L24.4376 154.442L33.529 153.671L41.2336 145.967V131.636L36.3797 117.152V102.436L29.1374 97.6589L22.2802 101.819Z" fill="white"/>
<path d="M16.8521 116.727C7.94602 116.474 2.40898 125.459 2.38583 134.369C2.36436 142.629 6.50458 150.843 14.7351 151.54C22.9874 152.239 28.5388 144.791 29.7894 136.604C30.9662 128.9 27.5577 120.275 20.932 117.576C19.6833 117.067 18.3202 116.769 16.8521 116.727Z" fill="white"/>
<path d="M20.932 117.576C19.6833 117.067 18.3202 116.769 16.8521 116.727C7.94602 116.474 2.40898 125.459 2.38583 134.369C2.36436 142.629 6.50458 150.843 14.7351 151.54C22.9874 152.239 28.5388 144.791 29.7894 136.604C30.9662 128.9 27.5577 120.275 20.932 117.576ZM20.932 117.576C20.932 117.576 17.7929 98.8501 28.1428 98.6149C38.4926 98.3796 35.5576 108.53 36.4612 116.727C37.5835 126.907 42.233 123.479 41.6682 140.25C41.1064 156.93 20.2793 157.378 18.0281 151.54" stroke="#DCE7FF" stroke-width="4.77127"/>
</svg>
