<svg width="25" height="24" viewBox="0 0 25 24" fill="none" xmlns="http://www.w3.org/2000/svg">
<path d="M1.42813 11.7836C1.42813 10.5972 1.62052 9.45892 2.00529 8.36874C2.39006 7.24649 2.91911 6.22044 3.59246 5.29058C4.29787 4.32866 5.11551 3.49499 6.04537 2.78958C6.97523 2.08417 7.98524 1.55511 9.07542 1.2024C9.33194 1.13828 9.73274 1.04208 10.2778 0.913827C10.855 0.753507 11.4482 0.609218 12.0574 0.480961C12.6987 0.352706 13.2919 0.240481 13.8369 0.144288C14.4141 0.0480961 14.8309 0 15.0874 0C16.6586 0 18.0534 0.400802 19.2718 1.2024C20.4903 2.00401 21.5003 3.03006 22.3019 4.28056C23.1355 5.499 23.7608 6.86172 24.1776 8.36874C24.5945 9.87575 24.8029 11.3186 24.8029 12.6974C24.8029 14.2365 24.5464 15.6954 24.0333 17.0741C23.5524 18.4529 22.847 19.6553 21.9171 20.6814C21.0193 21.7074 19.9131 22.525 18.5985 23.1343C17.3159 23.7114 15.873 24 14.2698 24C12.6345 24 11.0474 23.6794 9.50829 23.0381C7.96921 22.3968 6.59046 21.5311 5.37202 20.4409C4.18565 19.3186 3.22372 18.02 2.48625 16.5451C1.78084 15.0381 1.42813 13.4509 1.42813 11.7836ZM3.25579 11.8317C3.25579 13.2745 3.57643 14.6212 4.21771 15.8717C4.89106 17.0902 5.75679 18.1643 6.81491 19.0942C7.87302 20.024 9.05939 20.7615 10.374 21.3066C11.6887 21.8196 13.0033 22.0762 14.3179 22.0762C15.6646 22.0762 16.867 21.8357 17.9251 21.3547C18.9832 20.8737 19.865 20.2164 20.5704 19.3828C21.3079 18.517 21.853 17.523 22.2057 16.4008C22.5905 15.2786 22.7828 14.0601 22.7828 12.7455C22.7828 11.5591 22.6225 10.3246 22.3019 9.04208C22.0133 7.75952 21.5484 6.58918 20.9071 5.53106C20.2658 4.47295 19.4321 3.60721 18.4061 2.93387C17.4121 2.22846 16.2257 1.87575 14.847 1.87575C14.5584 1.87575 14.1095 1.92385 13.5003 2.02004C12.9231 2.11623 12.3139 2.24449 11.6726 2.40481C11.0313 2.56513 10.4061 2.74148 9.79687 2.93387C9.18765 3.12625 8.73875 3.31864 8.45018 3.51102C6.94316 4.37675 5.69266 5.53106 4.69867 6.97395C3.73675 8.41683 3.25579 10.0361 3.25579 11.8317Z" fill="#141414"/>
<path d="M11.804 16.2023C11.5593 16.0812 11.2629 16.1815 11.1418 16.4261C11.0208 16.6708 11.121 16.9672 11.3657 17.0883L11.5848 16.6453L11.804 16.2023ZM11.5848 16.6453C11.3657 17.0883 11.3658 17.0884 11.366 17.0885C11.3661 17.0885 11.3663 17.0886 11.3664 17.0886C11.3667 17.0888 11.367 17.0889 11.3673 17.0891C11.368 17.0894 11.3688 17.0898 11.3697 17.0903C11.3716 17.0912 11.3739 17.0923 11.3767 17.0936C11.3823 17.0963 11.3898 17.0999 11.3993 17.1043C11.4181 17.113 11.4444 17.125 11.4778 17.1395C11.5444 17.1684 11.6395 17.2074 11.759 17.251C11.9977 17.3379 12.3368 17.4438 12.7456 17.5226C13.5597 17.6796 14.6764 17.7339 15.8272 17.289L15.649 16.828L15.4708 16.367C14.5476 16.7239 13.6323 16.6869 12.9327 16.552C12.5847 16.4849 12.2967 16.3948 12.0974 16.3222C11.998 16.286 11.9213 16.2544 11.871 16.2326C11.8459 16.2217 11.8275 16.2133 11.8161 16.208C11.8105 16.2054 11.8066 16.2035 11.8045 16.2025C11.8035 16.202 11.803 16.2018 11.8029 16.2017C11.8028 16.2017 11.8029 16.2017 11.8031 16.2018C11.8032 16.2019 11.8033 16.2019 11.8035 16.202C11.8035 16.202 11.8037 16.2021 11.8037 16.2021C11.8039 16.2022 11.804 16.2023 11.5848 16.6453ZM15.649 16.828L15.8272 17.289C16.9882 16.8402 17.7736 16.0015 18.262 15.2992C18.5077 14.946 18.6835 14.6199 18.7984 14.3808C18.856 14.2609 18.8987 14.1622 18.9275 14.0918C18.942 14.0567 18.953 14.0285 18.9606 14.0083C18.9645 13.9982 18.9675 13.9901 18.9697 13.984C18.9708 13.981 18.9717 13.9785 18.9724 13.9766C18.9728 13.9756 18.9731 13.9747 18.9733 13.974C18.9735 13.9737 18.9736 13.9734 18.9737 13.9731C18.9737 13.9729 18.9738 13.9727 18.9738 13.9727C18.9739 13.9725 18.974 13.9723 18.508 13.8074C18.0421 13.6426 18.0421 13.6424 18.0422 13.6423C18.0422 13.6423 18.0422 13.6421 18.0423 13.642C18.0423 13.6419 18.0424 13.6418 18.0424 13.6417C18.0425 13.6415 18.0425 13.6415 18.0424 13.6416C18.0424 13.6417 18.0421 13.6424 18.0417 13.6437C18.0408 13.6461 18.0391 13.6505 18.0367 13.6568C18.0319 13.6695 18.024 13.6898 18.0129 13.7169C17.9907 13.771 17.9559 13.8518 17.9075 13.9525C17.8104 14.1544 17.6603 14.4332 17.4505 14.7348C17.0279 15.3424 16.3838 16.014 15.4708 16.367L15.649 16.828Z" fill="#141414"/>
<path d="M17.2088 13.1915C18.1327 14.0097 18.7204 14.3403 19.9075 14.668" stroke="#141414" stroke-width="0.988499" stroke-linecap="round"/>
<path d="M0.38099 10.6949C0.732206 9.04064 11.1717 10.3693 12.1044 10.576C13.0371 10.7826 13.8717 11.53 13.5928 13.0507C13.3139 14.5714 12.7766 15.0377 11.4691 14.9838C10.1615 14.93 0.0297751 12.3491 0.38099 10.6949Z" fill="#FDB029"/>
<circle cx="9.23503" cy="7.78633" r="1.24291" fill="#141414"/>
<circle cx="17.265" cy="8.9154" r="1.24291" fill="#141414"/>
</svg>
