<svg width="155" height="238" viewBox="0 0 155 238" fill="none" xmlns="http://www.w3.org/2000/svg">
<path d="M92.1312 0.131708C62.7815 2.83083 66.3462 34.6502 65.6531 70.5551C71.9838 77.0706 89.6913 88.6323 109.876 82.7544C135.106 75.4071 162.416 60.0193 152.712 39.7795C144.949 23.5877 122.491 31.4618 112.232 37.4228C115.785 24.4251 116.323 -2.09304 92.1312 0.131708Z" fill="#8A8987"/>
<path d="M124.591 111.354C132.462 147.986 49.3733 251.463 20.3355 235.375C-17.9251 214.178 4.31065 96.2824 33.7293 76.177C70.9153 50.7631 116.089 71.7877 124.591 111.354Z" fill="#A8A6A5"/>
<mask id="mask0_295_3159" style="mask-type:alpha" maskUnits="userSpaceOnUse" x="0" y="65" width="126" height="173">
<path d="M124.591 111.354C132.462 147.986 49.3733 251.463 20.3355 235.375C-17.9251 214.178 4.31065 96.2824 33.7293 76.177C70.9153 50.7631 116.089 71.7877 124.591 111.354Z" fill="#FF9940"/>
</mask>
<g mask="url(#mask0_295_3159)">
<path d="M91.0815 136.938C105.583 150.761 112.699 154.859 123.491 155.345" stroke="#7A7977" stroke-width="8.63501" stroke-linecap="round"/>
<path d="M85.7256 160.669C100.986 173.65 108.323 177.338 119.125 177.213" stroke="#7A7977" stroke-width="8.63501" stroke-linecap="round"/>
</g>
</svg>
