<svg width="168" height="161" viewBox="0 0 168 161" fill="none" xmlns="http://www.w3.org/2000/svg">
<rect y="106.861" width="167.159" height="53.7686" rx="3.61108" fill="#575757"/>
<path d="M57.2035 105.876C59.0339 107.242 59.1516 109.944 57.447 111.464L6.01486 157.343C3.68747 159.419 -1.36327e-07 157.767 0 154.648L3.68379e-06 70.3724C3.8137e-06 67.4004 3.3898 65.7008 5.77135 67.4787L57.2035 105.876Z" fill="#575757"/>
<path d="M109.953 105.876C108.124 107.243 108.007 109.943 109.711 111.464L161.144 157.343C163.471 159.419 167.159 157.767 167.159 154.648V70.3469C167.159 67.3743 163.768 65.6749 161.387 67.4539L109.953 105.876Z" fill="#575757"/>
<path d="M82.6856 141.69C82.8768 141.866 83.1701 141.866 83.3613 141.69L163.915 67.8686C164.251 67.5605 164.033 67 163.577 67H2.46968C2.01365 67 1.79566 67.5605 2.13187 67.8686L82.6856 141.69Z" fill="#575757"/>
<mask id="mask0_662_1523" style="mask-type:alpha" maskUnits="userSpaceOnUse" x="1" y="67" width="164" height="75">
<path d="M82.6856 141.69C82.8768 141.866 83.1701 141.866 83.3613 141.69L163.915 67.8686C164.251 67.5605 164.033 67 163.577 67H2.46968C2.01365 67 1.79566 67.5605 2.13187 67.8686L82.6856 141.69Z" fill="#E34234"/>
</mask>
<g mask="url(#mask0_662_1523)">
<path d="M1.52341 66.0001L82.5233 124" stroke="#AEAEAE"/>
<path d="M82.5234 124L164.523 66" stroke="#AEAEAE"/>
</g>
<path d="M84.0411 105.711C86.0482 102.513 88.8081 99.0627 92.9478 99.0627C100.161 99.0627 104.74 105.272 104.74 112.046C104.74 122.521 95.394 131.992 87.9927 138.327C86.8009 139.394 84.4802 141.84 82.9748 141.84C81.344 141.84 79.3368 139.394 78.2078 138.327C70.1792 130.926 61.5234 123.713 61.5234 111.796C61.5234 105.21 66.3531 99 73.19 99C77.267 99 81.7203 102.575 84.0411 105.711Z" fill="#A93232"/>
<path d="M84.0411 105.711C86.0482 102.513 88.8081 99.0627 92.9478 99.0627C100.161 99.0627 104.74 105.272 104.74 112.046C104.74 122.521 95.394 131.992 87.9927 138.327C86.8009 139.394 84.4802 141.84 82.9748 141.84C81.344 141.84 79.3368 139.394 78.2078 138.327C70.1792 130.926 61.5234 123.713 61.5234 111.796C61.5234 105.21 66.3531 99 73.19 99C77.267 99 81.7203 102.575 84.0411 105.711Z" fill="#AEAEAE"/>
</svg>
