<svg width="168" height="161" viewBox="0 0 168 161" fill="none" xmlns="http://www.w3.org/2000/svg">
<rect y="106.861" width="167.159" height="53.7686" rx="3.61108" fill="#2F4F9F"/>
<path d="M57.2035 105.876C59.0339 107.242 59.1516 109.944 57.447 111.464L6.01486 157.343C3.68747 159.419 -1.36327e-07 157.767 0 154.648L3.68379e-06 70.3724C3.8137e-06 67.4004 3.3898 65.7008 5.77135 67.4787L57.2035 105.876Z" fill="#2F4F9F"/>
<path d="M109.953 105.876C108.124 107.243 108.007 109.943 109.711 111.464L161.144 157.343C163.471 159.419 167.159 157.767 167.159 154.648V70.3469C167.159 67.3743 163.768 65.6749 161.387 67.4539L109.953 105.876Z" fill="#2F4F9F"/>
<path d="M83.5267 141.69C83.7178 141.866 84.0112 141.866 84.2023 141.69L164.756 67.8686C165.092 67.5605 164.874 67 164.418 67H3.31075C2.85471 67 2.63672 67.5605 2.97293 67.8686L83.5267 141.69Z" fill="#2F4F9F"/>
<mask id="mask0_662_1529" style="mask-type:alpha" maskUnits="userSpaceOnUse" x="2" y="67" width="163" height="75">
<path d="M83.5267 141.69C83.7178 141.866 84.0112 141.866 84.2023 141.69L164.756 67.8686C165.092 67.5605 164.874 67 164.418 67H3.31075C2.85471 67 2.63672 67.5605 2.97293 67.8686L83.5267 141.69Z" fill="#E34234"/>
</mask>
<g mask="url(#mask0_662_1529)">
<path d="M2.36448 66.0001L83.3644 124" stroke="#7CBDF6"/>
<path d="M83.3645 124L165.365 66" stroke="#7CBDF6"/>
</g>
<path d="M84.8822 105.711C86.8893 102.513 89.6491 99.0627 93.7889 99.0627C101.002 99.0627 105.581 105.272 105.581 112.046C105.581 122.521 96.2351 131.992 88.8337 138.327C87.642 139.394 85.3212 141.84 83.8159 141.84C82.1851 141.84 80.1779 139.394 79.0489 138.327C71.0203 130.926 62.3645 123.713 62.3645 111.796C62.3645 105.21 67.1942 99 74.031 99C78.108 99 82.5614 102.575 84.8822 105.711Z" fill="#A93232"/>
<path d="M84.8822 105.711C86.8893 102.513 89.6491 99.0627 93.7889 99.0627C101.002 99.0627 105.581 105.272 105.581 112.046C105.581 122.521 96.2351 131.992 88.8337 138.327C87.642 139.394 85.3212 141.84 83.8159 141.84C82.1851 141.84 80.1779 139.394 79.0489 138.327C71.0203 130.926 62.3645 123.713 62.3645 111.796C62.3645 105.21 67.1942 99 74.031 99C78.108 99 82.5614 102.575 84.8822 105.711Z" fill="#7CBDF6"/>
</svg>
