<svg width="187" height="183" viewBox="0 0 187 183" fill="none" xmlns="http://www.w3.org/2000/svg">
<path d="M103.066 0C84.0996 1.40067e-05 35.4366 23.2089 27.7005 30.9445C19.9643 38.6802 -6.88163e-06 97.5759 0 109.055C6.88163e-06 120.534 22.0565 157.191 22.5585 157.934L22.5626 157.94C23.0983 158.733 30.4021 169.544 67.629 179.429C104.953 189.34 149.023 172.75 160.463 161.711C171.903 150.672 186.916 113.047 186.916 102.566C186.916 92.0857 166.951 37.683 159.215 29.4473C151.479 21.2115 122.032 -1.40067e-05 103.066 0Z" fill="#C09476"/>
<mask id="mask0_295_2342" style="mask-type:alpha" maskUnits="userSpaceOnUse" x="0" y="0" width="187" height="183">
<path d="M103.066 0C84.0996 1.40067e-05 35.4366 23.2089 27.7005 30.9445C19.9643 38.6802 -6.88163e-06 97.5759 0 109.055C6.88163e-06 120.534 22.0565 157.191 22.5585 157.934L22.5626 157.94C23.0983 158.733 30.4021 169.544 67.629 179.429C104.953 189.34 149.023 172.75 160.463 161.711C171.903 150.672 186.916 113.047 186.916 102.566C186.916 92.0857 166.951 37.683 159.215 29.4473C151.479 21.2115 122.032 -1.40067e-05 103.066 0Z" fill="#C09476"/>
</mask>
<g mask="url(#mask0_295_2342)">
<path d="M58.7799 145.5L-4.93677 109.749L21.4437 171.015L78.0967 190.332L58.7799 145.5Z" fill="#B08265"/>
<path d="M109.313 106.38L50.7271 141.154L70.0039 184.81H126.322L168.656 163.077L109.313 106.38Z" fill="#9E7351"/>
<path d="M164.442 21.9449L107.528 79.1797L104.669 109.321L162.459 162.53L182.369 132.884L193.839 102.799L164.442 21.9449Z" fill="#B18365"/>
</g>
</svg>
